<?xml version="1.0" encoding="UTF-8"?>
<svg xmlns="http://www.w3.org/2000/svg" xmlns:xlink="http://www.w3.org/1999/xlink" width="13.333008pt" height="12pt" viewBox="0 0 13.333008 12" version="1.1">
<defs>
<clipPath id="clip1">
  <path d="M 0 0 L 13.332031 0 L 13.332031 12 L 0 12 Z M 0 0 "/>
</clipPath>
</defs>
<g id="surface1">
<g clip-path="url(#clip1)" clip-rule="nonzero">
<path style=" stroke:none;fill-rule:nonzero;fill:rgb(100%,100%,100%);fill-opacity:1;" d="M 9.960938 0 C 10.851563 0 11.714844 0.351563 12.347656 0.988281 C 12.980469 1.621094 13.332031 2.472656 13.332031 3.367188 L 13.332031 8.632813 C 13.332031 10.492188 11.820313 12 9.960938 12 L 3.375 12 C 1.511719 12 0 10.492188 0 8.632813 L 0 3.367188 C 0 1.507813 1.507813 0 3.375 0 Z M 10.714844 3.464844 C 10.574219 3.460938 10.441406 3.507813 10.339844 3.601563 L 7.332031 6 C 6.945313 6.320313 6.394531 6.320313 6 6 L 3 3.601563 C 2.792969 3.445313 2.507813 3.464844 2.332031 3.648438 C 2.152344 3.828125 2.132813 4.113281 2.285156 4.3125 L 2.375 4.398438 L 5.40625 6.765625 C 5.78125 7.058594 6.234375 7.21875 6.707031 7.21875 C 7.179688 7.21875 7.640625 7.058594 8.011719 6.765625 L 11.019531 4.359375 L 11.074219 4.308594 C 11.234375 4.113281 11.234375 3.832031 11.066406 3.640625 C 10.972656 3.539063 10.847656 3.480469 10.714844 3.464844 Z M 10.714844 3.464844 "/>
</g>
</g>
</svg>
