<svg width="368" height="144" viewBox="0 0 368 144" fill="none" xmlns="http://www.w3.org/2000/svg">
<rect width="344" height="144" rx="8" fill="#40A758" fill-opacity="0.05"/>
<rect x="0.25" y="0.25" width="343.5" height="143.5" rx="7.75" stroke="#40A758" stroke-opacity="0.3" stroke-width="0.5"/>
<path d="M18.948 28V23.8L15.182 18.06H17.1L19.76 22.176L22.434 18.06H24.366L20.586 23.814V28H18.948ZM29.6243 27.09C28.9243 27.79 28.0563 28.14 27.0203 28.14C25.9843 28.14 25.1116 27.79 24.4023 27.09C23.7023 26.3807 23.3523 25.5173 23.3523 24.5C23.3523 23.4827 23.7023 22.624 24.4023 21.924C25.1116 21.2147 25.9843 20.86 27.0203 20.86C28.0563 20.86 28.9243 21.2147 29.6243 21.924C30.3336 22.624 30.6883 23.4827 30.6883 24.5C30.6883 25.5173 30.3336 26.3807 29.6243 27.09ZM27.0203 26.712C27.627 26.712 28.1263 26.502 28.5183 26.082C28.9196 25.6527 29.1203 25.1253 29.1203 24.5C29.1203 23.8747 28.9196 23.352 28.5183 22.932C28.1263 22.5027 27.627 22.288 27.0203 22.288C26.4043 22.288 25.8956 22.5027 25.4943 22.932C25.1023 23.352 24.9063 23.8747 24.9063 24.5C24.9063 25.1253 25.1023 25.6527 25.4943 26.082C25.8956 26.502 26.4043 26.712 27.0203 26.712ZM34.7432 28.14C33.9405 28.14 33.3058 27.874 32.8392 27.342C32.3725 26.8007 32.1392 26.082 32.1392 25.186V21H33.6792V24.934C33.6792 25.494 33.8005 25.9373 34.0432 26.264C34.2858 26.5813 34.6312 26.74 35.0792 26.74C35.6018 26.74 36.0172 26.544 36.3252 26.152C36.6332 25.7507 36.7872 25.1813 36.7872 24.444V21H38.3272V28H36.7872V27.048C36.3765 27.776 35.6952 28.14 34.7432 28.14ZM40.3993 28V21H41.9393V22.246C42.0699 21.854 42.3079 21.5367 42.6533 21.294C43.0079 21.0513 43.3859 20.93 43.7873 20.93C44.0299 20.93 44.2306 20.9487 44.3893 20.986V22.568C44.1653 22.484 43.9086 22.442 43.6193 22.442C43.1526 22.442 42.7559 22.6333 42.4293 23.016C42.1026 23.3893 41.9393 23.912 41.9393 24.584V28H40.3993ZM50.2108 30.926H48.6708V21H50.2108V21.938C50.4254 21.6393 50.7334 21.3873 51.1348 21.182C51.5454 20.9673 51.9888 20.86 52.4648 20.86C53.4168 20.86 54.2148 21.2147 54.8588 21.924C55.5121 22.6333 55.8388 23.492 55.8388 24.5C55.8388 25.508 55.5121 26.3667 54.8588 27.076C54.2148 27.7853 53.4168 28.14 52.4648 28.14C51.9888 28.14 51.5454 28.0373 51.1348 27.832C50.7334 27.6173 50.4254 27.3607 50.2108 27.062V30.926ZM52.1848 26.74C52.7914 26.74 53.2908 26.5253 53.6828 26.096C54.0748 25.6667 54.2708 25.1347 54.2708 24.5C54.2708 23.8653 54.0748 23.3333 53.6828 22.904C53.2908 22.4747 52.7914 22.26 52.1848 22.26C51.5688 22.26 51.0648 22.4747 50.6728 22.904C50.2808 23.3333 50.0848 23.8653 50.0848 24.5C50.0848 25.1347 50.2808 25.6667 50.6728 26.096C51.0648 26.5253 51.5688 26.74 52.1848 26.74ZM60.2771 28.14C59.3251 28.14 58.5224 27.7853 57.8691 27.076C57.2251 26.3667 56.9031 25.508 56.9031 24.5C56.9031 23.492 57.2251 22.6333 57.8691 21.924C58.5224 21.2147 59.3251 20.86 60.2771 20.86C60.7531 20.86 61.1918 20.9673 61.5931 21.182C61.9944 21.3873 62.3024 21.6393 62.5171 21.938V21H64.0571V28H62.5171V27.062C62.3024 27.3607 61.9944 27.6173 61.5931 27.832C61.1918 28.0373 60.7531 28.14 60.2771 28.14ZM59.0591 26.096C59.4511 26.5253 59.9504 26.74 60.5571 26.74C61.1638 26.74 61.6631 26.5253 62.0551 26.096C62.4471 25.6667 62.6431 25.1347 62.6431 24.5C62.6431 23.8653 62.4471 23.3333 62.0551 22.904C61.6631 22.4747 61.1638 22.26 60.5571 22.26C59.9504 22.26 59.4511 22.4747 59.0591 22.904C58.6671 23.3333 58.4711 23.8653 58.4711 24.5C58.4711 25.1347 58.6671 25.6667 59.0591 26.096ZM68.6074 28.14C67.7768 28.14 67.0768 27.9347 66.5074 27.524C65.9474 27.1133 65.6488 26.5627 65.6114 25.872H67.2074C67.3194 26.5627 67.8001 26.908 68.6494 26.908C68.9948 26.908 69.2701 26.8473 69.4754 26.726C69.6808 26.5953 69.7834 26.4087 69.7834 26.166C69.7834 25.9233 69.7041 25.732 69.5454 25.592C69.3868 25.452 69.1208 25.3353 68.7474 25.242L67.5994 24.934C66.4048 24.6167 65.8074 23.912 65.8074 22.82C65.8074 22.232 66.0454 21.7607 66.5214 21.406C66.9974 21.042 67.6274 20.86 68.4114 20.86C69.1674 20.86 69.7881 21.0513 70.2734 21.434C70.7588 21.8167 71.0294 22.3253 71.0854 22.96H69.5454C69.3961 22.3813 69.0134 22.092 68.3974 22.092C68.0894 22.092 67.8421 22.1573 67.6554 22.288C67.4688 22.4093 67.3754 22.582 67.3754 22.806C67.3754 23.2073 67.6881 23.4873 68.3134 23.646L69.4894 23.954C70.7308 24.2713 71.3514 24.976 71.3514 26.068C71.3514 26.7307 71.0948 27.244 70.5814 27.608C70.0774 27.9627 69.4194 28.14 68.6074 28.14ZM75.375 28.14C74.5443 28.14 73.8443 27.9347 73.275 27.524C72.715 27.1133 72.4163 26.5627 72.379 25.872H73.975C74.087 26.5627 74.5677 26.908 75.417 26.908C75.7623 26.908 76.0377 26.8473 76.243 26.726C76.4483 26.5953 76.551 26.4087 76.551 26.166C76.551 25.9233 76.4717 25.732 76.313 25.592C76.1543 25.452 75.8883 25.3353 75.515 25.242L74.367 24.934C73.1723 24.6167 72.575 23.912 72.575 22.82C72.575 22.232 72.813 21.7607 73.289 21.406C73.765 21.042 74.395 20.86 75.179 20.86C75.935 20.86 76.5557 21.0513 77.041 21.434C77.5263 21.8167 77.797 22.3253 77.853 22.96H76.313C76.1637 22.3813 75.781 22.092 75.165 22.092C74.857 22.092 74.6097 22.1573 74.423 22.288C74.2363 22.4093 74.143 22.582 74.143 22.806C74.143 23.2073 74.4557 23.4873 75.081 23.646L76.257 23.954C77.4983 24.2713 78.119 24.976 78.119 26.068C78.119 26.7307 77.8623 27.244 77.349 27.608C76.845 27.9627 76.187 28.14 75.375 28.14ZM85.5879 28L84.0479 23.478L82.5219 28H81.0659L78.7139 21H80.3379L81.8499 25.83L83.4599 21H84.6359L86.2179 25.83L87.7579 21H89.3959L87.0439 28H85.5879ZM96.261 27.09C95.561 27.79 94.693 28.14 93.657 28.14C92.621 28.14 91.7484 27.79 91.039 27.09C90.339 26.3807 89.989 25.5173 89.989 24.5C89.989 23.4827 90.339 22.624 91.039 21.924C91.7484 21.2147 92.621 20.86 93.657 20.86C94.693 20.86 95.561 21.2147 96.261 21.924C96.9704 22.624 97.325 23.4827 97.325 24.5C97.325 25.5173 96.9704 26.3807 96.261 27.09ZM93.657 26.712C94.2637 26.712 94.763 26.502 95.155 26.082C95.5564 25.6527 95.757 25.1253 95.757 24.5C95.757 23.8747 95.5564 23.352 95.155 22.932C94.763 22.5027 94.2637 22.288 93.657 22.288C93.041 22.288 92.5324 22.5027 92.131 22.932C91.739 23.352 91.543 23.8747 91.543 24.5C91.543 25.1253 91.739 25.6527 92.131 26.082C92.5324 26.502 93.041 26.712 93.657 26.712ZM98.8739 28V21H100.414V22.246C100.545 21.854 100.783 21.5367 101.128 21.294C101.483 21.0513 101.861 20.93 102.262 20.93C102.505 20.93 102.705 20.9487 102.864 20.986V22.568C102.64 22.484 102.383 22.442 102.094 22.442C101.627 22.442 101.231 22.6333 100.904 23.016C100.577 23.3893 100.414 23.912 100.414 24.584V28H98.8739ZM106.83 28.14C105.878 28.14 105.075 27.7853 104.422 27.076C103.778 26.3667 103.456 25.508 103.456 24.5C103.456 23.492 103.778 22.6333 104.422 21.924C105.075 21.2147 105.878 20.86 106.83 20.86C107.306 20.86 107.744 20.9673 108.146 21.182C108.547 21.3873 108.855 21.6393 109.07 21.938V17.5H110.61V28H109.07V27.062C108.855 27.3607 108.547 27.6173 108.146 27.832C107.744 28.0373 107.306 28.14 106.83 28.14ZM105.612 26.096C106.004 26.5253 106.503 26.74 107.11 26.74C107.716 26.74 108.216 26.5253 108.608 26.096C109 25.6667 109.196 25.1347 109.196 24.5C109.196 23.8653 109 23.3333 108.608 22.904C108.216 22.4747 107.716 22.26 107.11 22.26C106.503 22.26 106.004 22.4747 105.612 22.904C105.22 23.3333 105.024 23.8653 105.024 24.5C105.024 25.1347 105.22 25.6667 105.612 26.096ZM124.909 28V24.066C124.909 23.4967 124.802 23.0533 124.587 22.736C124.382 22.4187 124.074 22.26 123.663 22.26C123.168 22.26 122.772 22.4513 122.473 22.834C122.174 23.2167 122.016 23.7533 121.997 24.444V28H120.457V24.066C120.457 23.4967 120.35 23.0533 120.135 22.736C119.93 22.4187 119.622 22.26 119.211 22.26C118.698 22.26 118.287 22.4607 117.979 22.862C117.68 23.2633 117.531 23.828 117.531 24.556V28H115.991V21H117.531V21.952C117.96 21.224 118.623 20.86 119.519 20.86C120.574 20.86 121.297 21.322 121.689 22.246C121.885 21.8073 122.184 21.4667 122.585 21.224C122.996 20.9813 123.444 20.86 123.929 20.86C124.713 20.86 125.329 21.126 125.777 21.658C126.225 22.19 126.449 22.9087 126.449 23.814V28H124.909ZM130.925 28.14C130.122 28.14 129.487 27.874 129.021 27.342C128.554 26.8007 128.321 26.082 128.321 25.186V21H129.861V24.934C129.861 25.494 129.982 25.9373 130.225 26.264C130.467 26.5813 130.813 26.74 131.261 26.74C131.783 26.74 132.199 26.544 132.507 26.152C132.815 25.7507 132.969 25.1813 132.969 24.444V21H134.509V28H132.969V27.048C132.558 27.776 131.877 28.14 130.925 28.14ZM139.045 28.14C138.214 28.14 137.514 27.9347 136.945 27.524C136.385 27.1133 136.086 26.5627 136.049 25.872H137.645C137.757 26.5627 138.238 26.908 139.087 26.908C139.432 26.908 139.708 26.8473 139.913 26.726C140.118 26.5953 140.221 26.4087 140.221 26.166C140.221 25.9233 140.142 25.732 139.983 25.592C139.824 25.452 139.558 25.3353 139.185 25.242L138.037 24.934C136.842 24.6167 136.245 23.912 136.245 22.82C136.245 22.232 136.483 21.7607 136.959 21.406C137.435 21.042 138.065 20.86 138.849 20.86C139.605 20.86 140.226 21.0513 140.711 21.434C141.196 21.8167 141.467 22.3253 141.523 22.96H139.983C139.834 22.3813 139.451 22.092 138.835 22.092C138.527 22.092 138.28 22.1573 138.093 22.288C137.906 22.4093 137.813 22.582 137.813 22.806C137.813 23.2073 138.126 23.4873 138.751 23.646L139.927 23.954C141.168 24.2713 141.789 24.976 141.789 26.068C141.789 26.7307 141.532 27.244 141.019 27.608C140.515 27.9627 139.857 28.14 139.045 28.14ZM146.25 28.07C145.54 28.07 144.962 27.874 144.514 27.482C144.075 27.0807 143.856 26.502 143.856 25.746V22.372H142.4V21H143.856V19.054H145.396V21H147.398V22.372H145.396V25.494C145.396 25.9233 145.489 26.2313 145.676 26.418C145.862 26.5953 146.161 26.684 146.572 26.684C146.908 26.684 147.183 26.6373 147.398 26.544V27.916C147.062 28.0187 146.679 28.07 146.25 28.07ZM155.947 28.14C155.471 28.14 155.028 28.0373 154.617 27.832C154.216 27.6173 153.908 27.3607 153.693 27.062V28H152.153V17.5H153.693V21.938C153.908 21.6393 154.216 21.3873 154.617 21.182C155.028 20.9673 155.471 20.86 155.947 20.86C156.899 20.86 157.697 21.2147 158.341 21.924C158.995 22.6333 159.321 23.492 159.321 24.5C159.321 25.508 158.995 26.3667 158.341 27.076C157.697 27.7853 156.899 28.14 155.947 28.14ZM155.667 26.74C156.274 26.74 156.773 26.5253 157.165 26.096C157.557 25.6667 157.753 25.1347 157.753 24.5C157.753 23.8653 157.557 23.3333 157.165 22.904C156.773 22.4747 156.274 22.26 155.667 22.26C155.051 22.26 154.547 22.4747 154.155 22.904C153.763 23.3333 153.567 23.8653 153.567 24.5C153.567 25.1347 153.763 25.6667 154.155 26.096C154.547 26.5253 155.051 26.74 155.667 26.74ZM163.984 28.14C162.938 28.14 162.08 27.7993 161.408 27.118C160.736 26.4273 160.4 25.5547 160.4 24.5C160.4 23.4453 160.731 22.5773 161.394 21.896C162.056 21.2053 162.924 20.86 163.998 20.86C165.08 20.86 165.953 21.238 166.616 21.994C167.278 22.7407 167.572 23.702 167.498 24.878H161.926C161.944 25.4193 162.15 25.872 162.542 26.236C162.934 26.6 163.433 26.782 164.04 26.782C164.898 26.782 165.486 26.4553 165.804 25.802H167.414C167.199 26.4833 166.788 27.0433 166.182 27.482C165.575 27.9207 164.842 28.14 163.984 28.14ZM163.956 22.148C163.452 22.148 163.018 22.2927 162.654 22.582C162.299 22.862 162.07 23.2633 161.968 23.786H165.846C165.734 23.2447 165.505 22.8387 165.16 22.568C164.814 22.288 164.413 22.148 163.956 22.148ZM170.045 23.268C169.718 23.268 169.434 23.1513 169.191 22.918C168.958 22.6753 168.841 22.386 168.841 22.05C168.841 21.7233 168.958 21.4387 169.191 21.196C169.434 20.9533 169.718 20.832 170.045 20.832C170.381 20.832 170.666 20.9533 170.899 21.196C171.142 21.4387 171.263 21.7233 171.263 22.05C171.263 22.386 171.142 22.6753 170.899 22.918C170.666 23.1513 170.381 23.268 170.045 23.268ZM170.045 28.112C169.718 28.112 169.434 27.9953 169.191 27.762C168.958 27.5193 168.841 27.23 168.841 26.894C168.841 26.5673 168.958 26.2827 169.191 26.04C169.434 25.7973 169.718 25.676 170.045 25.676C170.381 25.676 170.666 25.7973 170.899 26.04C171.142 26.2827 171.263 26.5673 171.263 26.894C171.263 27.23 171.142 27.5193 170.899 27.762C170.666 27.9953 170.381 28.112 170.045 28.112Z" fill="#32325D"/>
<path d="M50.6969 54.12C49.8649 54.12 49.1649 53.816 48.5969 53.208C48.0369 52.6 47.7569 51.864 47.7569 51C47.7569 50.136 48.0369 49.4 48.5969 48.792C49.1649 48.184 49.8649 47.88 50.6969 47.88C51.1369 47.88 51.5449 47.98 51.9209 48.18C52.3049 48.372 52.6009 48.62 52.8089 48.924V48H53.8409V54H52.8089V53.076C52.6009 53.38 52.3049 53.632 51.9209 53.832C51.5449 54.024 51.1369 54.12 50.6969 54.12ZM50.8529 53.172C51.4449 53.172 51.9329 52.964 52.3169 52.548C52.7009 52.132 52.8929 51.616 52.8929 51C52.8929 50.384 52.7009 49.868 52.3169 49.452C51.9329 49.036 51.4449 48.828 50.8529 48.828C50.2529 48.828 49.7609 49.036 49.3769 49.452C48.9929 49.868 48.8009 50.384 48.8009 51C48.8009 51.616 48.9929 52.132 49.3769 52.548C49.7609 52.964 50.2529 53.172 50.8529 53.172ZM58.1115 54.06C57.5595 54.06 57.1155 53.904 56.7795 53.592C56.4435 53.28 56.2755 52.824 56.2755 52.224V48.948H55.0035V48H56.2755V46.332H57.3075V48H59.0355V48.948H57.3075V52.092C57.3075 52.468 57.3875 52.732 57.5475 52.884C57.7075 53.036 57.9595 53.112 58.3035 53.112C58.6075 53.112 58.8515 53.072 59.0355 52.992V53.916C58.7475 54.012 58.4395 54.06 58.1115 54.06ZM63.2484 54V45H64.2804V54H63.2484ZM68.7926 54.12C67.9206 54.12 67.1966 53.824 66.6206 53.232C66.0526 52.64 65.7686 51.896 65.7686 51C65.7686 50.096 66.0446 49.352 66.5966 48.768C67.1566 48.176 67.8966 47.88 68.8166 47.88C69.7446 47.88 70.4726 48.208 71.0006 48.864C71.5286 49.52 71.7606 50.324 71.6966 51.276H66.8126C66.8286 51.82 67.0286 52.276 67.4126 52.644C67.7966 53.004 68.2606 53.184 68.8046 53.184C69.6206 53.184 70.2006 52.848 70.5446 52.176H71.6006C71.4486 52.736 71.1246 53.2 70.6286 53.568C70.1326 53.936 69.5206 54.12 68.7926 54.12ZM69.9686 49.224C69.6406 48.936 69.2446 48.792 68.7806 48.792C68.3166 48.792 67.9006 48.932 67.5326 49.212C67.1726 49.492 66.9486 49.908 66.8606 50.46H70.6046C70.5086 49.916 70.2966 49.504 69.9686 49.224ZM75.6579 54.12C74.8259 54.12 74.1259 53.816 73.5579 53.208C72.9979 52.6 72.7179 51.864 72.7179 51C72.7179 50.136 72.9979 49.4 73.5579 48.792C74.1259 48.184 74.8259 47.88 75.6579 47.88C76.0979 47.88 76.5059 47.98 76.8819 48.18C77.2659 48.372 77.5619 48.62 77.7699 48.924V48H78.8019V54H77.7699V53.076C77.5619 53.38 77.2659 53.632 76.8819 53.832C76.5059 54.024 76.0979 54.12 75.6579 54.12ZM75.8139 53.172C76.4059 53.172 76.8939 52.964 77.2779 52.548C77.6619 52.132 77.8539 51.616 77.8539 51C77.8539 50.384 77.6619 49.868 77.2779 49.452C76.8939 49.036 76.4059 48.828 75.8139 48.828C75.2139 48.828 74.7219 49.036 74.3379 49.452C73.9539 49.868 73.7619 50.384 73.7619 51C73.7619 51.616 73.9539 52.132 74.3379 52.548C74.7219 52.964 75.2139 53.172 75.8139 53.172ZM82.6765 54.12C82.0045 54.12 81.4405 53.956 80.9845 53.628C80.5365 53.3 80.2885 52.844 80.2405 52.26H81.2965C81.3605 52.596 81.5205 52.844 81.7765 53.004C82.0405 53.164 82.3445 53.244 82.6885 53.244C83.0325 53.244 83.3085 53.176 83.5165 53.04C83.7325 52.904 83.8405 52.708 83.8405 52.452C83.8405 52.212 83.7605 52.016 83.6005 51.864C83.4485 51.712 83.1965 51.588 82.8445 51.492L81.9805 51.264C80.9485 50.992 80.4325 50.404 80.4325 49.5C80.4325 49.012 80.6245 48.62 81.0085 48.324C81.4005 48.028 81.9005 47.88 82.5085 47.88C83.1245 47.88 83.6285 48.044 84.0205 48.372C84.4205 48.692 84.6445 49.1 84.6925 49.596H83.6605C83.5805 49.332 83.4365 49.124 83.2285 48.972C83.0285 48.82 82.7885 48.744 82.5085 48.744C82.2125 48.744 81.9645 48.812 81.7645 48.948C81.5725 49.084 81.4765 49.264 81.4765 49.488C81.4765 49.704 81.5485 49.88 81.6925 50.016C81.8365 50.152 82.0685 50.264 82.3885 50.352L83.3485 50.604C84.3725 50.86 84.8845 51.452 84.8845 52.38C84.8845 52.956 84.6805 53.392 84.2725 53.688C83.8645 53.976 83.3325 54.12 82.6765 54.12ZM88.5803 54.06C88.0283 54.06 87.5843 53.904 87.2483 53.592C86.9123 53.28 86.7443 52.824 86.7443 52.224V48.948H85.4723V48H86.7443V46.332H87.7763V48H89.5043V48.948H87.7763V52.092C87.7763 52.468 87.8563 52.732 88.0163 52.884C88.1763 53.036 88.4283 53.112 88.7723 53.112C89.0763 53.112 89.3203 53.072 89.5043 52.992V53.916C89.2163 54.012 88.9083 54.06 88.5803 54.06ZM98.1211 53.304C97.5771 53.848 96.8931 54.12 96.0691 54.12C95.2451 54.12 94.5571 53.848 94.0051 53.304C93.4531 52.76 93.1771 52.096 93.1771 51.312C93.1771 50.896 93.2571 50.524 93.4171 50.196C93.5851 49.86 93.8251 49.508 94.1371 49.14L97.2451 45.48H98.5531L95.9491 48.564C96.0931 48.548 96.2051 48.54 96.2851 48.54C96.9971 48.54 97.6171 48.812 98.1451 49.356C98.6811 49.9 98.9491 50.544 98.9491 51.288C98.9491 52.08 98.6731 52.752 98.1211 53.304ZM96.0691 53.124C96.5811 53.124 97.0131 52.944 97.3651 52.584C97.7171 52.224 97.8931 51.792 97.8931 51.288C97.8931 50.784 97.7171 50.352 97.3651 49.992C97.0131 49.632 96.5811 49.452 96.0691 49.452C95.5491 49.452 95.1131 49.632 94.7611 49.992C94.4091 50.344 94.2331 50.776 94.2331 51.288C94.2331 51.8 94.4091 52.236 94.7611 52.596C95.1131 52.948 95.5491 53.124 96.0691 53.124ZM105.979 54.12C105.075 54.12 104.327 53.82 103.735 53.22C103.143 52.612 102.847 51.872 102.847 51C102.847 50.128 103.143 49.392 103.735 48.792C104.327 48.184 105.075 47.88 105.979 47.88C106.723 47.88 107.367 48.088 107.911 48.504C108.455 48.912 108.819 49.448 109.003 50.112H107.899C107.755 49.72 107.515 49.408 107.179 49.176C106.843 48.944 106.443 48.828 105.979 48.828C105.363 48.828 104.859 49.036 104.467 49.452C104.083 49.868 103.891 50.384 103.891 51C103.891 51.616 104.083 52.132 104.467 52.548C104.859 52.964 105.363 53.172 105.979 53.172C106.443 53.172 106.843 53.056 107.179 52.824C107.515 52.592 107.755 52.28 107.899 51.888H109.003C108.827 52.552 108.467 53.092 107.923 53.508C107.379 53.916 106.731 54.12 105.979 54.12ZM111.401 54H110.369V45H111.401V48.924C111.809 48.228 112.445 47.88 113.309 47.88C113.989 47.88 114.537 48.1 114.953 48.54C115.369 48.98 115.577 49.568 115.577 50.304V54H114.557V50.46C114.557 49.956 114.429 49.56 114.173 49.272C113.917 48.976 113.573 48.828 113.141 48.828C112.645 48.828 112.229 49.024 111.893 49.416C111.565 49.808 111.401 50.344 111.401 51.024V54ZM119.908 54.12C119.076 54.12 118.376 53.816 117.808 53.208C117.248 52.6 116.968 51.864 116.968 51C116.968 50.136 117.248 49.4 117.808 48.792C118.376 48.184 119.076 47.88 119.908 47.88C120.348 47.88 120.756 47.98 121.132 48.18C121.516 48.372 121.812 48.62 122.02 48.924V48H123.052V54H122.02V53.076C121.812 53.38 121.516 53.632 121.132 53.832C120.756 54.024 120.348 54.12 119.908 54.12ZM120.064 53.172C120.656 53.172 121.144 52.964 121.528 52.548C121.912 52.132 122.104 51.616 122.104 51C122.104 50.384 121.912 49.868 121.528 49.452C121.144 49.036 120.656 48.828 120.064 48.828C119.464 48.828 118.972 49.036 118.588 49.452C118.204 49.868 118.012 50.384 118.012 51C118.012 51.616 118.204 52.132 118.588 52.548C118.972 52.964 119.464 53.172 120.064 53.172ZM124.994 54V48H126.026V49.164C126.138 48.796 126.354 48.5 126.674 48.276C127.002 48.052 127.346 47.94 127.706 47.94C127.882 47.94 128.038 47.956 128.174 47.988V49.056C128.03 48.992 127.842 48.96 127.61 48.96C127.194 48.96 126.826 49.14 126.506 49.5C126.186 49.86 126.026 50.368 126.026 51.024V54H124.994ZM131.662 54.12C130.83 54.12 130.13 53.816 129.562 53.208C129.002 52.6 128.722 51.864 128.722 51C128.722 50.136 129.002 49.4 129.562 48.792C130.13 48.184 130.83 47.88 131.662 47.88C132.102 47.88 132.51 47.98 132.886 48.18C133.27 48.372 133.566 48.62 133.774 48.924V48H134.806V54H133.774V53.076C133.566 53.38 133.27 53.632 132.886 53.832C132.51 54.024 132.102 54.12 131.662 54.12ZM131.818 53.172C132.41 53.172 132.898 52.964 133.282 52.548C133.666 52.132 133.858 51.616 133.858 51C133.858 50.384 133.666 49.868 133.282 49.452C132.898 49.036 132.41 48.828 131.818 48.828C131.218 48.828 130.726 49.036 130.342 49.452C129.958 49.868 129.766 50.384 129.766 51C129.766 51.616 129.958 52.132 130.342 52.548C130.726 52.964 131.218 53.172 131.818 53.172ZM139.412 54.12C138.508 54.12 137.76 53.82 137.168 53.22C136.576 52.612 136.28 51.872 136.28 51C136.28 50.128 136.576 49.392 137.168 48.792C137.76 48.184 138.508 47.88 139.412 47.88C140.156 47.88 140.8 48.088 141.344 48.504C141.888 48.912 142.252 49.448 142.436 50.112H141.332C141.188 49.72 140.948 49.408 140.612 49.176C140.276 48.944 139.876 48.828 139.412 48.828C138.796 48.828 138.292 49.036 137.9 49.452C137.516 49.868 137.324 50.384 137.324 51C137.324 51.616 137.516 52.132 137.9 52.548C138.292 52.964 138.796 53.172 139.412 53.172C139.876 53.172 140.276 53.056 140.612 52.824C140.948 52.592 141.188 52.28 141.332 51.888H142.436C142.26 52.552 141.9 53.092 141.356 53.508C140.812 53.916 140.164 54.12 139.412 54.12ZM146.072 54.06C145.52 54.06 145.076 53.904 144.74 53.592C144.404 53.28 144.236 52.824 144.236 52.224V48.948H142.964V48H144.236V46.332H145.268V48H146.996V48.948H145.268V52.092C145.268 52.468 145.348 52.732 145.508 52.884C145.668 53.036 145.92 53.112 146.264 53.112C146.568 53.112 146.812 53.072 146.996 52.992V53.916C146.708 54.012 146.4 54.06 146.072 54.06ZM150.789 54.12C149.917 54.12 149.193 53.824 148.617 53.232C148.049 52.64 147.765 51.896 147.765 51C147.765 50.096 148.041 49.352 148.593 48.768C149.153 48.176 149.893 47.88 150.813 47.88C151.741 47.88 152.469 48.208 152.997 48.864C153.525 49.52 153.757 50.324 153.693 51.276H148.809C148.825 51.82 149.025 52.276 149.409 52.644C149.793 53.004 150.257 53.184 150.801 53.184C151.617 53.184 152.197 52.848 152.541 52.176H153.597C153.445 52.736 153.121 53.2 152.625 53.568C152.129 53.936 151.517 54.12 150.789 54.12ZM151.965 49.224C151.637 48.936 151.241 48.792 150.777 48.792C150.313 48.792 149.897 48.932 149.529 49.212C149.169 49.492 148.945 49.908 148.857 50.46H152.601C152.505 49.916 152.293 49.504 151.965 49.224ZM155.182 54V48H156.214V49.164C156.326 48.796 156.542 48.5 156.862 48.276C157.19 48.052 157.534 47.94 157.894 47.94C158.07 47.94 158.226 47.956 158.362 47.988V49.056C158.218 48.992 158.03 48.96 157.798 48.96C157.382 48.96 157.014 49.14 156.694 49.5C156.374 49.86 156.214 50.368 156.214 51.024V54H155.182ZM161.403 54.12C160.731 54.12 160.167 53.956 159.711 53.628C159.263 53.3 159.015 52.844 158.967 52.26H160.023C160.087 52.596 160.247 52.844 160.503 53.004C160.767 53.164 161.071 53.244 161.415 53.244C161.759 53.244 162.035 53.176 162.243 53.04C162.459 52.904 162.567 52.708 162.567 52.452C162.567 52.212 162.487 52.016 162.327 51.864C162.175 51.712 161.923 51.588 161.571 51.492L160.707 51.264C159.675 50.992 159.159 50.404 159.159 49.5C159.159 49.012 159.351 48.62 159.735 48.324C160.127 48.028 160.627 47.88 161.235 47.88C161.851 47.88 162.355 48.044 162.747 48.372C163.147 48.692 163.371 49.1 163.419 49.596H162.387C162.307 49.332 162.163 49.124 161.955 48.972C161.755 48.82 161.515 48.744 161.235 48.744C160.939 48.744 160.691 48.812 160.491 48.948C160.299 49.084 160.203 49.264 160.203 49.488C160.203 49.704 160.275 49.88 160.419 50.016C160.563 50.152 160.795 50.264 161.115 50.352L162.075 50.604C163.099 50.86 163.611 51.452 163.611 52.38C163.611 52.956 163.407 53.392 162.999 53.688C162.591 53.976 162.059 54.12 161.403 54.12ZM167.967 54V45H168.999V54H167.967ZM173.619 54.12C172.715 54.12 171.963 53.82 171.363 53.22C170.771 52.612 170.475 51.872 170.475 51C170.475 50.128 170.771 49.392 171.363 48.792C171.963 48.184 172.715 47.88 173.619 47.88C174.515 47.88 175.259 48.184 175.851 48.792C176.451 49.392 176.751 50.128 176.751 51C176.751 51.872 176.451 52.612 175.851 53.22C175.259 53.82 174.515 54.12 173.619 54.12ZM172.107 52.536C172.499 52.952 173.003 53.16 173.619 53.16C174.235 53.16 174.735 52.952 175.119 52.536C175.503 52.12 175.695 51.608 175.695 51C175.695 50.392 175.503 49.88 175.119 49.464C174.735 49.048 174.235 48.84 173.619 48.84C173.003 48.84 172.499 49.048 172.107 49.464C171.723 49.88 171.531 50.392 171.531 51C171.531 51.608 171.723 52.12 172.107 52.536ZM178.233 54V48H179.265V48.924C179.673 48.228 180.309 47.88 181.173 47.88C181.853 47.88 182.401 48.1 182.817 48.54C183.233 48.98 183.441 49.568 183.441 50.304V54H182.421V50.46C182.421 49.956 182.293 49.56 182.037 49.272C181.781 48.976 181.437 48.828 181.005 48.828C180.509 48.828 180.093 49.024 179.757 49.416C179.429 49.808 179.265 50.344 179.265 51.024V54H178.233ZM187.939 56.628C187.147 56.628 186.487 56.432 185.959 56.04C185.439 55.656 185.131 55.16 185.035 54.552H186.043C186.307 55.328 186.947 55.716 187.963 55.716C188.531 55.716 188.987 55.532 189.331 55.164C189.683 54.804 189.859 54.296 189.859 53.64V52.932C189.643 53.252 189.351 53.508 188.983 53.7C188.615 53.892 188.211 53.988 187.771 53.988C186.931 53.988 186.231 53.696 185.671 53.112C185.111 52.52 184.831 51.792 184.831 50.928C184.831 50.072 185.111 49.352 185.671 48.768C186.239 48.176 186.939 47.88 187.771 47.88C188.211 47.88 188.615 47.976 188.983 48.168C189.351 48.36 189.643 48.612 189.859 48.924V48H190.891V53.628C190.891 54.588 190.611 55.328 190.051 55.848C189.499 56.368 188.795 56.628 187.939 56.628ZM186.451 52.44C186.827 52.832 187.315 53.028 187.915 53.028C188.515 53.028 189.003 52.832 189.379 52.44C189.755 52.04 189.943 51.536 189.943 50.928C189.943 50.32 189.751 49.82 189.367 49.428C188.991 49.028 188.507 48.828 187.915 48.828C187.323 48.828 186.835 49.028 186.451 49.428C186.075 49.82 185.887 50.32 185.887 50.928C185.887 51.536 186.075 52.04 186.451 52.44Z" fill="#32325D" fill-opacity="0.8"/>
<path fill-rule="evenodd" clip-rule="evenodd" d="M28.8831 47.4918C29.0211 47.3526 29.1869 47.241 29.3707 47.1635C29.5545 47.0861 29.7526 47.0444 29.9535 47.0408C30.1544 47.0372 30.354 47.0718 30.5408 47.1426C30.7275 47.2134 30.8975 47.3189 31.041 47.4531C31.1845 47.5872 31.2985 47.7473 31.3764 47.924C31.4542 48.1006 31.4944 48.2903 31.4946 48.4819C31.4948 48.6735 31.455 48.8632 31.3774 49.04C31.2998 49.2168 31.1861 49.3771 31.0429 49.5115L22.9936 59.1071C22.8553 59.2491 22.6883 59.3631 22.5027 59.4421C22.3171 59.5212 22.1167 59.5638 21.9135 59.5674C21.7103 59.571 21.5084 59.5355 21.3198 59.4629C21.1313 59.3904 20.9601 59.2824 20.8163 59.1454L15.4827 54.0557C15.3338 53.9237 15.2144 53.7644 15.1315 53.5874C15.0486 53.4103 15.004 53.2192 15.0003 53.0254C14.9966 52.8315 15.0339 52.639 15.1099 52.4592C15.186 52.2794 15.2993 52.1161 15.4431 51.979C15.5868 51.8419 15.758 51.7338 15.9465 51.6613C16.1351 51.5887 16.337 51.5532 16.5402 51.5567C16.7435 51.5602 16.9439 51.6028 17.1295 51.6818C17.3151 51.7609 17.4821 51.8748 17.6205 52.0168L21.8431 56.0414L28.8448 47.5344C28.8573 47.5196 28.8707 47.5056 28.885 47.4924L28.8831 47.4918Z" fill="#11D686"/>
<path d="M50.5016 89.202C49.6696 89.202 48.9696 88.898 48.4016 88.29C47.8416 87.682 47.5616 86.946 47.5616 86.082C47.5616 85.218 47.8416 84.482 48.4016 83.874C48.9696 83.266 49.6696 82.962 50.5016 82.962C50.9416 82.962 51.3496 83.062 51.7256 83.262C52.1096 83.454 52.4056 83.702 52.6136 84.006V83.082H53.6456V89.082H52.6136V88.158C52.4056 88.462 52.1096 88.714 51.7256 88.914C51.3496 89.106 50.9416 89.202 50.5016 89.202ZM50.6576 88.254C51.2496 88.254 51.7376 88.046 52.1216 87.63C52.5056 87.214 52.6976 86.698 52.6976 86.082C52.6976 85.466 52.5056 84.95 52.1216 84.534C51.7376 84.118 51.2496 83.91 50.6576 83.91C50.0576 83.91 49.5656 84.118 49.1816 84.534C48.7976 84.95 48.6056 85.466 48.6056 86.082C48.6056 86.698 48.7976 87.214 49.1816 87.63C49.5656 88.046 50.0576 88.254 50.6576 88.254ZM57.9162 89.142C57.3642 89.142 56.9202 88.986 56.5842 88.674C56.2482 88.362 56.0802 87.906 56.0802 87.306V84.03H54.8082V83.082H56.0802V81.414H57.1122V83.082H58.8402V84.03H57.1122V87.174C57.1122 87.55 57.1922 87.814 57.3522 87.966C57.5122 88.118 57.7642 88.194 58.1082 88.194C58.4122 88.194 58.6562 88.154 58.8402 88.074V88.998C58.5522 89.094 58.2442 89.142 57.9162 89.142ZM63.0531 89.082V80.082H64.0851V89.082H63.0531ZM68.5973 89.202C67.7253 89.202 67.0013 88.906 66.4253 88.314C65.8573 87.722 65.5733 86.978 65.5733 86.082C65.5733 85.178 65.8493 84.434 66.4013 83.85C66.9613 83.258 67.7013 82.962 68.6213 82.962C69.5493 82.962 70.2773 83.29 70.8053 83.946C71.3333 84.602 71.5653 85.406 71.5013 86.358H66.6173C66.6333 86.902 66.8333 87.358 67.2173 87.726C67.6013 88.086 68.0653 88.266 68.6093 88.266C69.4253 88.266 70.0053 87.93 70.3493 87.258H71.4053C71.2533 87.818 70.9293 88.282 70.4333 88.65C69.9373 89.018 69.3253 89.202 68.5973 89.202ZM69.7733 84.306C69.4453 84.018 69.0493 83.874 68.5853 83.874C68.1213 83.874 67.7053 84.014 67.3373 84.294C66.9773 84.574 66.7533 84.99 66.6653 85.542H70.4093C70.3133 84.998 70.1013 84.586 69.7733 84.306ZM75.4626 89.202C74.6306 89.202 73.9306 88.898 73.3626 88.29C72.8026 87.682 72.5226 86.946 72.5226 86.082C72.5226 85.218 72.8026 84.482 73.3626 83.874C73.9306 83.266 74.6306 82.962 75.4626 82.962C75.9026 82.962 76.3106 83.062 76.6866 83.262C77.0706 83.454 77.3666 83.702 77.5746 84.006V83.082H78.6066V89.082H77.5746V88.158C77.3666 88.462 77.0706 88.714 76.6866 88.914C76.3106 89.106 75.9026 89.202 75.4626 89.202ZM75.6186 88.254C76.2106 88.254 76.6986 88.046 77.0826 87.63C77.4666 87.214 77.6586 86.698 77.6586 86.082C77.6586 85.466 77.4666 84.95 77.0826 84.534C76.6986 84.118 76.2106 83.91 75.6186 83.91C75.0186 83.91 74.5266 84.118 74.1426 84.534C73.7586 84.95 73.5666 85.466 73.5666 86.082C73.5666 86.698 73.7586 87.214 74.1426 87.63C74.5266 88.046 75.0186 88.254 75.6186 88.254ZM82.4811 89.202C81.8091 89.202 81.2451 89.038 80.7891 88.71C80.3411 88.382 80.0931 87.926 80.0451 87.342H81.1011C81.1651 87.678 81.3251 87.926 81.5811 88.086C81.8451 88.246 82.1491 88.326 82.4931 88.326C82.8371 88.326 83.1131 88.258 83.3211 88.122C83.5371 87.986 83.6451 87.79 83.6451 87.534C83.6451 87.294 83.5651 87.098 83.4051 86.946C83.2531 86.794 83.0011 86.67 82.6491 86.574L81.7851 86.346C80.7531 86.074 80.2371 85.486 80.2371 84.582C80.2371 84.094 80.4291 83.702 80.8131 83.406C81.2051 83.11 81.7051 82.962 82.3131 82.962C82.9291 82.962 83.4331 83.126 83.8251 83.454C84.2251 83.774 84.4491 84.182 84.4971 84.678H83.4651C83.3851 84.414 83.2411 84.206 83.0331 84.054C82.8331 83.902 82.5931 83.826 82.3131 83.826C82.0171 83.826 81.7691 83.894 81.5691 84.03C81.3771 84.166 81.2811 84.346 81.2811 84.57C81.2811 84.786 81.3531 84.962 81.4971 85.098C81.6411 85.234 81.8731 85.346 82.1931 85.434L83.1531 85.686C84.1771 85.942 84.6891 86.534 84.6891 87.462C84.6891 88.038 84.4851 88.474 84.0771 88.77C83.6691 89.058 83.1371 89.202 82.4811 89.202ZM88.385 89.142C87.833 89.142 87.389 88.986 87.053 88.674C86.717 88.362 86.549 87.906 86.549 87.306V84.03H85.277V83.082H86.549V81.414H87.581V83.082H89.309V84.03H87.581V87.174C87.581 87.55 87.661 87.814 87.821 87.966C87.981 88.118 88.233 88.194 88.577 88.194C88.881 88.194 89.125 88.154 89.309 88.074V88.998C89.021 89.094 88.713 89.142 88.385 89.142ZM96.1858 89.202C95.2818 89.202 94.5298 88.902 93.9298 88.302C93.3378 87.694 93.0418 86.954 93.0418 86.082C93.0418 85.21 93.3378 84.474 93.9298 83.874C94.5298 83.266 95.2818 82.962 96.1858 82.962C97.0818 82.962 97.8258 83.266 98.4178 83.874C99.0178 84.474 99.3178 85.21 99.3178 86.082C99.3178 86.954 99.0178 87.694 98.4178 88.302C97.8258 88.902 97.0818 89.202 96.1858 89.202ZM94.6738 87.618C95.0658 88.034 95.5698 88.242 96.1858 88.242C96.8018 88.242 97.3018 88.034 97.6858 87.618C98.0698 87.202 98.2618 86.69 98.2618 86.082C98.2618 85.474 98.0698 84.962 97.6858 84.546C97.3018 84.13 96.8018 83.922 96.1858 83.922C95.5698 83.922 95.0658 84.13 94.6738 84.546C94.2898 84.962 94.0978 85.474 94.0978 86.082C94.0978 86.69 94.2898 87.202 94.6738 87.618ZM100.799 89.082V83.082H101.831V84.006C102.239 83.31 102.875 82.962 103.739 82.962C104.419 82.962 104.967 83.182 105.383 83.622C105.799 84.062 106.007 84.65 106.007 85.386V89.082H104.987V85.542C104.987 85.038 104.859 84.642 104.603 84.354C104.347 84.058 104.003 83.91 103.571 83.91C103.075 83.91 102.659 84.106 102.323 84.498C101.995 84.89 101.831 85.426 101.831 86.106V89.082H100.799ZM110.422 89.202C109.55 89.202 108.826 88.906 108.25 88.314C107.682 87.722 107.398 86.978 107.398 86.082C107.398 85.178 107.674 84.434 108.226 83.85C108.786 83.258 109.526 82.962 110.446 82.962C111.374 82.962 112.102 83.29 112.63 83.946C113.158 84.602 113.39 85.406 113.326 86.358H108.442C108.458 86.902 108.658 87.358 109.042 87.726C109.426 88.086 109.89 88.266 110.434 88.266C111.25 88.266 111.83 87.93 112.174 87.258H113.23C113.078 87.818 112.754 88.282 112.258 88.65C111.762 89.018 111.15 89.202 110.422 89.202ZM111.598 84.306C111.27 84.018 110.874 83.874 110.41 83.874C109.946 83.874 109.53 84.014 109.162 84.294C108.802 84.574 108.578 84.99 108.49 85.542H112.234C112.138 84.998 111.926 84.586 111.598 84.306ZM119.833 89.202C119.177 89.202 118.645 88.982 118.237 88.542C117.829 88.094 117.625 87.502 117.625 86.766V83.082H118.657V86.61C118.657 87.114 118.777 87.514 119.017 87.81C119.265 88.106 119.597 88.254 120.013 88.254C120.493 88.254 120.889 88.058 121.201 87.666C121.521 87.266 121.681 86.73 121.681 86.058V83.082H122.713V89.082H121.681V88.158C121.289 88.854 120.673 89.202 119.833 89.202ZM125.691 91.59H124.659V83.082H125.691V84.006C125.899 83.702 126.191 83.454 126.567 83.262C126.951 83.062 127.363 82.962 127.803 82.962C128.635 82.962 129.331 83.266 129.891 83.874C130.459 84.482 130.743 85.218 130.743 86.082C130.743 86.946 130.459 87.682 129.891 88.29C129.331 88.898 128.635 89.202 127.803 89.202C127.363 89.202 126.951 89.106 126.567 88.914C126.191 88.714 125.899 88.462 125.691 88.158V91.59ZM126.183 87.63C126.567 88.046 127.055 88.254 127.647 88.254C128.239 88.254 128.727 88.046 129.111 87.63C129.495 87.214 129.687 86.698 129.687 86.082C129.687 85.466 129.495 84.95 129.111 84.534C128.727 84.118 128.239 83.91 127.647 83.91C127.055 83.91 126.567 84.118 126.183 84.534C125.799 84.95 125.607 85.466 125.607 86.082C125.607 86.698 125.799 87.214 126.183 87.63ZM133.261 91.59H132.229V83.082H133.261V84.006C133.469 83.702 133.761 83.454 134.137 83.262C134.521 83.062 134.933 82.962 135.373 82.962C136.205 82.962 136.901 83.266 137.461 83.874C138.029 84.482 138.313 85.218 138.313 86.082C138.313 86.946 138.029 87.682 137.461 88.29C136.901 88.898 136.205 89.202 135.373 89.202C134.933 89.202 134.521 89.106 134.137 88.914C133.761 88.714 133.469 88.462 133.261 88.158V91.59ZM133.753 87.63C134.137 88.046 134.625 88.254 135.217 88.254C135.809 88.254 136.297 88.046 136.681 87.63C137.065 87.214 137.257 86.698 137.257 86.082C137.257 85.466 137.065 84.95 136.681 84.534C136.297 84.118 135.809 83.91 135.217 83.91C134.625 83.91 134.137 84.118 133.753 84.534C133.369 84.95 133.177 85.466 133.177 86.082C133.177 86.698 133.369 87.214 133.753 87.63ZM142.355 89.202C141.483 89.202 140.759 88.906 140.183 88.314C139.615 87.722 139.331 86.978 139.331 86.082C139.331 85.178 139.607 84.434 140.159 83.85C140.719 83.258 141.459 82.962 142.379 82.962C143.307 82.962 144.035 83.29 144.563 83.946C145.091 84.602 145.323 85.406 145.259 86.358H140.375C140.391 86.902 140.591 87.358 140.975 87.726C141.359 88.086 141.823 88.266 142.367 88.266C143.183 88.266 143.763 87.93 144.107 87.258H145.163C145.011 87.818 144.687 88.282 144.191 88.65C143.695 89.018 143.083 89.202 142.355 89.202ZM143.531 84.306C143.203 84.018 142.807 83.874 142.343 83.874C141.879 83.874 141.463 84.014 141.095 84.294C140.735 84.574 140.511 84.99 140.423 85.542H144.167C144.071 84.998 143.859 84.586 143.531 84.306ZM146.748 89.082V83.082H147.78V84.246C147.892 83.878 148.108 83.582 148.428 83.358C148.756 83.134 149.1 83.022 149.46 83.022C149.636 83.022 149.792 83.038 149.928 83.07V84.138C149.784 84.074 149.596 84.042 149.364 84.042C148.948 84.042 148.58 84.222 148.26 84.582C147.94 84.942 147.78 85.45 147.78 86.106V89.082H146.748ZM153.596 89.202C152.692 89.202 151.944 88.902 151.352 88.302C150.76 87.694 150.464 86.954 150.464 86.082C150.464 85.21 150.76 84.474 151.352 83.874C151.944 83.266 152.692 82.962 153.596 82.962C154.34 82.962 154.984 83.17 155.528 83.586C156.072 83.994 156.436 84.53 156.62 85.194H155.516C155.372 84.802 155.132 84.49 154.796 84.258C154.46 84.026 154.06 83.91 153.596 83.91C152.98 83.91 152.476 84.118 152.084 84.534C151.7 84.95 151.508 85.466 151.508 86.082C151.508 86.698 151.7 87.214 152.084 87.63C152.476 88.046 152.98 88.254 153.596 88.254C154.06 88.254 154.46 88.138 154.796 87.906C155.132 87.674 155.372 87.362 155.516 86.97H156.62C156.444 87.634 156.084 88.174 155.54 88.59C154.996 88.998 154.348 89.202 153.596 89.202ZM160.459 89.202C159.627 89.202 158.927 88.898 158.359 88.29C157.799 87.682 157.519 86.946 157.519 86.082C157.519 85.218 157.799 84.482 158.359 83.874C158.927 83.266 159.627 82.962 160.459 82.962C160.899 82.962 161.307 83.062 161.683 83.262C162.067 83.454 162.363 83.702 162.571 84.006V83.082H163.603V89.082H162.571V88.158C162.363 88.462 162.067 88.714 161.683 88.914C161.307 89.106 160.899 89.202 160.459 89.202ZM160.615 88.254C161.207 88.254 161.695 88.046 162.079 87.63C162.463 87.214 162.655 86.698 162.655 86.082C162.655 85.466 162.463 84.95 162.079 84.534C161.695 84.118 161.207 83.91 160.615 83.91C160.015 83.91 159.523 84.118 159.139 84.534C158.755 84.95 158.563 85.466 158.563 86.082C158.563 86.698 158.755 87.214 159.139 87.63C159.523 88.046 160.015 88.254 160.615 88.254ZM167.477 89.202C166.805 89.202 166.241 89.038 165.785 88.71C165.337 88.382 165.089 87.926 165.041 87.342H166.097C166.161 87.678 166.321 87.926 166.577 88.086C166.841 88.246 167.145 88.326 167.489 88.326C167.833 88.326 168.109 88.258 168.317 88.122C168.533 87.986 168.641 87.79 168.641 87.534C168.641 87.294 168.561 87.098 168.401 86.946C168.249 86.794 167.997 86.67 167.645 86.574L166.781 86.346C165.749 86.074 165.233 85.486 165.233 84.582C165.233 84.094 165.425 83.702 165.809 83.406C166.201 83.11 166.701 82.962 167.309 82.962C167.925 82.962 168.429 83.126 168.821 83.454C169.221 83.774 169.445 84.182 169.493 84.678H168.461C168.381 84.414 168.237 84.206 168.029 84.054C167.829 83.902 167.589 83.826 167.309 83.826C167.013 83.826 166.765 83.894 166.565 84.03C166.373 84.166 166.277 84.346 166.277 84.57C166.277 84.786 166.349 84.962 166.493 85.098C166.637 85.234 166.869 85.346 167.189 85.434L168.149 85.686C169.173 85.942 169.685 86.534 169.685 87.462C169.685 88.038 169.481 88.474 169.073 88.77C168.665 89.058 168.133 89.202 167.477 89.202ZM173.703 89.202C172.831 89.202 172.107 88.906 171.531 88.314C170.963 87.722 170.679 86.978 170.679 86.082C170.679 85.178 170.955 84.434 171.507 83.85C172.067 83.258 172.807 82.962 173.727 82.962C174.655 82.962 175.383 83.29 175.911 83.946C176.439 84.602 176.671 85.406 176.607 86.358H171.723C171.739 86.902 171.939 87.358 172.323 87.726C172.707 88.086 173.171 88.266 173.715 88.266C174.531 88.266 175.111 87.93 175.455 87.258H176.511C176.359 87.818 176.035 88.282 175.539 88.65C175.043 89.018 174.431 89.202 173.703 89.202ZM174.879 84.306C174.551 84.018 174.155 83.874 173.691 83.874C173.227 83.874 172.811 84.014 172.443 84.294C172.083 84.574 171.859 84.99 171.771 85.542H175.515C175.419 84.998 175.207 84.586 174.879 84.306ZM180.991 89.082V80.082H182.023V89.082H180.991ZM186.535 89.202C185.663 89.202 184.939 88.906 184.363 88.314C183.795 87.722 183.511 86.978 183.511 86.082C183.511 85.178 183.787 84.434 184.339 83.85C184.899 83.258 185.639 82.962 186.559 82.962C187.487 82.962 188.215 83.29 188.743 83.946C189.271 84.602 189.503 85.406 189.439 86.358H184.555C184.571 86.902 184.771 87.358 185.155 87.726C185.539 88.086 186.003 88.266 186.547 88.266C187.363 88.266 187.943 87.93 188.287 87.258H189.343C189.191 87.818 188.867 88.282 188.371 88.65C187.875 89.018 187.263 89.202 186.535 89.202ZM187.711 84.306C187.383 84.018 186.987 83.874 186.523 83.874C186.059 83.874 185.643 84.014 185.275 84.294C184.915 84.574 184.691 84.99 184.603 85.542H188.347C188.251 84.998 188.039 84.586 187.711 84.306ZM197.566 89.142C197.014 89.142 196.57 88.986 196.234 88.674C195.898 88.362 195.73 87.906 195.73 87.306V84.03H194.602V83.082H195.73V81.414H196.762V83.082H198.502V84.03H196.762V87.174C196.762 87.55 196.842 87.814 197.002 87.966C197.162 88.118 197.414 88.194 197.758 88.194C198.07 88.194 198.318 88.154 198.502 88.074V88.998C198.19 89.094 197.878 89.142 197.566 89.142ZM193.174 89.142C192.622 89.142 192.178 88.986 191.842 88.674C191.506 88.362 191.338 87.906 191.338 87.306V84.03H190.066V83.082H191.338V81.414H192.37V83.082H193.93V84.03H192.37V87.174C192.37 87.55 192.45 87.814 192.61 87.966C192.77 88.118 193.022 88.194 193.366 88.194C193.67 88.194 193.914 88.154 194.098 88.074V88.998C193.81 89.094 193.502 89.142 193.174 89.142ZM202.297 89.202C201.425 89.202 200.701 88.906 200.125 88.314C199.557 87.722 199.273 86.978 199.273 86.082C199.273 85.178 199.549 84.434 200.101 83.85C200.661 83.258 201.401 82.962 202.321 82.962C203.249 82.962 203.977 83.29 204.505 83.946C205.033 84.602 205.265 85.406 205.201 86.358H200.317C200.333 86.902 200.533 87.358 200.917 87.726C201.301 88.086 201.765 88.266 202.309 88.266C203.125 88.266 203.705 87.93 204.049 87.258H205.105C204.953 87.818 204.629 88.282 204.133 88.65C203.637 89.018 203.025 89.202 202.297 89.202ZM203.473 84.306C203.145 84.018 202.749 83.874 202.285 83.874C201.821 83.874 201.405 84.014 201.037 84.294C200.677 84.574 200.453 84.99 200.365 85.542H204.109C204.013 84.998 203.801 84.586 203.473 84.306ZM206.69 89.082V83.082H207.722V84.246C207.834 83.878 208.05 83.582 208.37 83.358C208.698 83.134 209.042 83.022 209.402 83.022C209.578 83.022 209.734 83.038 209.87 83.07V84.138C209.726 84.074 209.538 84.042 209.306 84.042C208.89 84.042 208.522 84.222 208.202 84.582C207.882 84.942 207.722 85.45 207.722 86.106V89.082H206.69ZM216.146 89.202C215.314 89.202 214.614 88.898 214.046 88.29C213.486 87.682 213.206 86.946 213.206 86.082C213.206 85.218 213.486 84.482 214.046 83.874C214.614 83.266 215.314 82.962 216.146 82.962C216.586 82.962 216.994 83.062 217.37 83.262C217.754 83.454 218.05 83.702 218.258 84.006V83.082H219.29V89.082H218.258V88.158C218.05 88.462 217.754 88.714 217.37 88.914C216.994 89.106 216.586 89.202 216.146 89.202ZM216.302 88.254C216.894 88.254 217.382 88.046 217.766 87.63C218.15 87.214 218.342 86.698 218.342 86.082C218.342 85.466 218.15 84.95 217.766 84.534C217.382 84.118 216.894 83.91 216.302 83.91C215.702 83.91 215.21 84.118 214.826 84.534C214.442 84.95 214.25 85.466 214.25 86.082C214.25 86.698 214.442 87.214 214.826 87.63C215.21 88.046 215.702 88.254 216.302 88.254ZM221.233 89.082V83.082H222.265V84.006C222.673 83.31 223.309 82.962 224.173 82.962C224.853 82.962 225.401 83.182 225.817 83.622C226.233 84.062 226.441 84.65 226.441 85.386V89.082H225.421V85.542C225.421 85.038 225.293 84.642 225.037 84.354C224.781 84.058 224.437 83.91 224.005 83.91C223.509 83.91 223.093 84.106 222.757 84.498C222.429 84.89 222.265 85.426 222.265 86.106V89.082H221.233ZM230.771 89.202C229.939 89.202 229.239 88.898 228.671 88.29C228.111 87.682 227.831 86.946 227.831 86.082C227.831 85.218 228.111 84.482 228.671 83.874C229.239 83.266 229.939 82.962 230.771 82.962C231.211 82.962 231.619 83.062 231.995 83.262C232.379 83.454 232.675 83.702 232.883 84.006V80.082H233.915V89.082H232.883V88.158C232.675 88.462 232.379 88.714 231.995 88.914C231.619 89.106 231.211 89.202 230.771 89.202ZM230.927 88.254C231.519 88.254 232.007 88.046 232.391 87.63C232.775 87.214 232.967 86.698 232.967 86.082C232.967 85.466 232.775 84.95 232.391 84.534C232.007 84.118 231.519 83.91 230.927 83.91C230.327 83.91 229.835 84.118 229.451 84.534C229.067 84.95 228.875 85.466 228.875 86.082C228.875 86.698 229.067 87.214 229.451 87.63C229.835 88.046 230.327 88.254 230.927 88.254ZM238.752 89.082V80.082H239.784V89.082H238.752ZM244.405 89.202C243.501 89.202 242.749 88.902 242.149 88.302C241.557 87.694 241.261 86.954 241.261 86.082C241.261 85.21 241.557 84.474 242.149 83.874C242.749 83.266 243.501 82.962 244.405 82.962C245.301 82.962 246.045 83.266 246.637 83.874C247.237 84.474 247.537 85.21 247.537 86.082C247.537 86.954 247.237 87.694 246.637 88.302C246.045 88.902 245.301 89.202 244.405 89.202ZM242.893 87.618C243.285 88.034 243.789 88.242 244.405 88.242C245.021 88.242 245.521 88.034 245.905 87.618C246.289 87.202 246.481 86.69 246.481 86.082C246.481 85.474 246.289 84.962 245.905 84.546C245.521 84.13 245.021 83.922 244.405 83.922C243.789 83.922 243.285 84.13 242.893 84.546C242.509 84.962 242.317 85.474 242.317 86.082C242.317 86.69 242.509 87.202 242.893 87.618ZM254.082 89.082L252.594 84.774L251.118 89.082H250.206L248.166 83.082H249.246L250.698 87.462L252.198 83.082H252.99L254.49 87.462L255.942 83.082H257.034L254.994 89.082H254.082ZM260.679 89.202C259.807 89.202 259.083 88.906 258.507 88.314C257.939 87.722 257.655 86.978 257.655 86.082C257.655 85.178 257.931 84.434 258.483 83.85C259.043 83.258 259.783 82.962 260.703 82.962C261.631 82.962 262.359 83.29 262.887 83.946C263.415 84.602 263.647 85.406 263.583 86.358H258.699C258.715 86.902 258.915 87.358 259.299 87.726C259.683 88.086 260.147 88.266 260.691 88.266C261.507 88.266 262.087 87.93 262.431 87.258H263.487C263.335 87.818 263.011 88.282 262.515 88.65C262.019 89.018 261.407 89.202 260.679 89.202ZM261.855 84.306C261.527 84.018 261.131 83.874 260.667 83.874C260.203 83.874 259.787 84.014 259.419 84.294C259.059 84.574 258.835 84.99 258.747 85.542H262.491C262.395 84.998 262.183 84.586 261.855 84.306ZM265.073 89.082V83.082H266.105V84.246C266.217 83.878 266.433 83.582 266.753 83.358C267.081 83.134 267.425 83.022 267.785 83.022C267.961 83.022 268.117 83.038 268.253 83.07V84.138C268.109 84.074 267.921 84.042 267.689 84.042C267.273 84.042 266.905 84.222 266.585 84.582C266.265 84.942 266.105 85.45 266.105 86.106V89.082H265.073ZM274.721 89.202C273.817 89.202 273.069 88.902 272.477 88.302C271.885 87.694 271.589 86.954 271.589 86.082C271.589 85.21 271.885 84.474 272.477 83.874C273.069 83.266 273.817 82.962 274.721 82.962C275.465 82.962 276.109 83.17 276.653 83.586C277.197 83.994 277.561 84.53 277.745 85.194H276.641C276.497 84.802 276.257 84.49 275.921 84.258C275.585 84.026 275.185 83.91 274.721 83.91C274.105 83.91 273.601 84.118 273.209 84.534C272.825 84.95 272.633 85.466 272.633 86.082C272.633 86.698 272.825 87.214 273.209 87.63C273.601 88.046 274.105 88.254 274.721 88.254C275.185 88.254 275.585 88.138 275.921 87.906C276.257 87.674 276.497 87.362 276.641 86.97H277.745C277.569 87.634 277.209 88.174 276.665 88.59C276.121 88.998 275.473 89.202 274.721 89.202ZM281.584 89.202C280.752 89.202 280.052 88.898 279.484 88.29C278.924 87.682 278.644 86.946 278.644 86.082C278.644 85.218 278.924 84.482 279.484 83.874C280.052 83.266 280.752 82.962 281.584 82.962C282.024 82.962 282.432 83.062 282.808 83.262C283.192 83.454 283.488 83.702 283.696 84.006V83.082H284.728V89.082H283.696V88.158C283.488 88.462 283.192 88.714 282.808 88.914C282.432 89.106 282.024 89.202 281.584 89.202ZM281.74 88.254C282.332 88.254 282.82 88.046 283.204 87.63C283.588 87.214 283.78 86.698 283.78 86.082C283.78 85.466 283.588 84.95 283.204 84.534C282.82 84.118 282.332 83.91 281.74 83.91C281.14 83.91 280.648 84.118 280.264 84.534C279.88 84.95 279.688 85.466 279.688 86.082C279.688 86.698 279.88 87.214 280.264 87.63C280.648 88.046 281.14 88.254 281.74 88.254ZM288.602 89.202C287.93 89.202 287.366 89.038 286.91 88.71C286.462 88.382 286.214 87.926 286.166 87.342H287.222C287.286 87.678 287.446 87.926 287.702 88.086C287.966 88.246 288.27 88.326 288.614 88.326C288.958 88.326 289.234 88.258 289.442 88.122C289.658 87.986 289.766 87.79 289.766 87.534C289.766 87.294 289.686 87.098 289.526 86.946C289.374 86.794 289.122 86.67 288.77 86.574L287.906 86.346C286.874 86.074 286.358 85.486 286.358 84.582C286.358 84.094 286.55 83.702 286.934 83.406C287.326 83.11 287.826 82.962 288.434 82.962C289.05 82.962 289.554 83.126 289.946 83.454C290.346 83.774 290.57 84.182 290.618 84.678H289.586C289.506 84.414 289.362 84.206 289.154 84.054C288.954 83.902 288.714 83.826 288.434 83.826C288.138 83.826 287.89 83.894 287.69 84.03C287.498 84.166 287.402 84.346 287.402 84.57C287.402 84.786 287.474 84.962 287.618 85.098C287.762 85.234 287.994 85.346 288.314 85.434L289.274 85.686C290.298 85.942 290.81 86.534 290.81 87.462C290.81 88.038 290.606 88.474 290.198 88.77C289.79 89.058 289.258 89.202 288.602 89.202ZM294.828 89.202C293.956 89.202 293.232 88.906 292.656 88.314C292.088 87.722 291.804 86.978 291.804 86.082C291.804 85.178 292.08 84.434 292.632 83.85C293.192 83.258 293.932 82.962 294.852 82.962C295.78 82.962 296.508 83.29 297.036 83.946C297.564 84.602 297.796 85.406 297.732 86.358H292.848C292.864 86.902 293.064 87.358 293.448 87.726C293.832 88.086 294.296 88.266 294.84 88.266C295.656 88.266 296.236 87.93 296.58 87.258H297.636C297.484 87.818 297.16 88.282 296.664 88.65C296.168 89.018 295.556 89.202 294.828 89.202ZM296.004 84.306C295.676 84.018 295.28 83.874 294.816 83.874C294.352 83.874 293.936 84.014 293.568 84.294C293.208 84.574 292.984 84.99 292.896 85.542H296.64C296.544 84.998 296.332 84.586 296.004 84.306Z" fill="#32325D" fill-opacity="0.8"/>
<path fill-rule="evenodd" clip-rule="evenodd" d="M28.8831 81.2872C29.0211 81.148 29.1869 81.0364 29.3707 80.959C29.5545 80.8815 29.7526 80.8398 29.9535 80.8362C30.1544 80.8326 30.354 80.8672 30.5408 80.938C30.7275 81.0088 30.8975 81.1143 31.041 81.2485C31.1845 81.3826 31.2985 81.5427 31.3764 81.7194C31.4542 81.896 31.4944 82.0857 31.4946 82.2773C31.4948 82.4689 31.455 82.6587 31.3774 82.8354C31.2998 83.0122 31.1861 83.1725 31.0429 83.3069L22.9936 92.9025C22.8553 93.0445 22.6883 93.1585 22.5027 93.2375C22.3171 93.3166 22.1167 93.3592 21.9135 93.3628C21.7103 93.3664 21.5084 93.3309 21.3198 93.2584C21.1313 93.1859 20.9601 93.0779 20.8163 92.9408L15.4827 87.8511C15.3338 87.7191 15.2144 87.5598 15.1315 87.3828C15.0486 87.2057 15.004 87.0146 15.0003 86.8208C14.9966 86.6269 15.0339 86.4344 15.1099 86.2546C15.186 86.0748 15.2993 85.9115 15.4431 85.7744C15.5868 85.6373 15.758 85.5293 15.9465 85.4567C16.1351 85.3841 16.337 85.3486 16.5402 85.3521C16.7435 85.3556 16.9439 85.3982 17.1295 85.4772C17.3151 85.5563 17.4821 85.6702 17.6205 85.8122L21.8431 89.8368L28.8448 81.3298C28.8573 81.315 28.8707 81.301 28.885 81.2878L28.8831 81.2872Z" fill="#11D686"/>
<path d="M50.5016 120.202C49.6696 120.202 48.9696 119.898 48.4016 119.29C47.8416 118.682 47.5616 117.946 47.5616 117.082C47.5616 116.218 47.8416 115.482 48.4016 114.874C48.9696 114.266 49.6696 113.962 50.5016 113.962C50.9416 113.962 51.3496 114.062 51.7256 114.262C52.1096 114.454 52.4056 114.702 52.6136 115.006V114.082H53.6456V120.082H52.6136V119.158C52.4056 119.462 52.1096 119.714 51.7256 119.914C51.3496 120.106 50.9416 120.202 50.5016 120.202ZM50.6576 119.254C51.2496 119.254 51.7376 119.046 52.1216 118.63C52.5056 118.214 52.6976 117.698 52.6976 117.082C52.6976 116.466 52.5056 115.95 52.1216 115.534C51.7376 115.118 51.2496 114.91 50.6576 114.91C50.0576 114.91 49.5656 115.118 49.1816 115.534C48.7976 115.95 48.6056 116.466 48.6056 117.082C48.6056 117.698 48.7976 118.214 49.1816 118.63C49.5656 119.046 50.0576 119.254 50.6576 119.254ZM57.9162 120.142C57.3642 120.142 56.9202 119.986 56.5842 119.674C56.2482 119.362 56.0802 118.906 56.0802 118.306V115.03H54.8082V114.082H56.0802V112.414H57.1122V114.082H58.8402V115.03H57.1122V118.174C57.1122 118.55 57.1922 118.814 57.3522 118.966C57.5122 119.118 57.7642 119.194 58.1082 119.194C58.4122 119.194 58.6562 119.154 58.8402 119.074V119.998C58.5522 120.094 58.2442 120.142 57.9162 120.142ZM63.0531 120.082V111.082H64.0851V120.082H63.0531ZM68.5973 120.202C67.7253 120.202 67.0013 119.906 66.4253 119.314C65.8573 118.722 65.5733 117.978 65.5733 117.082C65.5733 116.178 65.8493 115.434 66.4013 114.85C66.9613 114.258 67.7013 113.962 68.6213 113.962C69.5493 113.962 70.2773 114.29 70.8053 114.946C71.3333 115.602 71.5653 116.406 71.5013 117.358H66.6173C66.6333 117.902 66.8333 118.358 67.2173 118.726C67.6013 119.086 68.0653 119.266 68.6093 119.266C69.4253 119.266 70.0053 118.93 70.3493 118.258H71.4053C71.2533 118.818 70.9293 119.282 70.4333 119.65C69.9373 120.018 69.3253 120.202 68.5973 120.202ZM69.7733 115.306C69.4453 115.018 69.0493 114.874 68.5853 114.874C68.1213 114.874 67.7053 115.014 67.3373 115.294C66.9773 115.574 66.7533 115.99 66.6653 116.542H70.4093C70.3133 115.998 70.1013 115.586 69.7733 115.306ZM75.4626 120.202C74.6306 120.202 73.9306 119.898 73.3626 119.29C72.8026 118.682 72.5226 117.946 72.5226 117.082C72.5226 116.218 72.8026 115.482 73.3626 114.874C73.9306 114.266 74.6306 113.962 75.4626 113.962C75.9026 113.962 76.3106 114.062 76.6866 114.262C77.0706 114.454 77.3666 114.702 77.5746 115.006V114.082H78.6066V120.082H77.5746V119.158C77.3666 119.462 77.0706 119.714 76.6866 119.914C76.3106 120.106 75.9026 120.202 75.4626 120.202ZM75.6186 119.254C76.2106 119.254 76.6986 119.046 77.0826 118.63C77.4666 118.214 77.6586 117.698 77.6586 117.082C77.6586 116.466 77.4666 115.95 77.0826 115.534C76.6986 115.118 76.2106 114.91 75.6186 114.91C75.0186 114.91 74.5266 115.118 74.1426 115.534C73.7586 115.95 73.5666 116.466 73.5666 117.082C73.5666 117.698 73.7586 118.214 74.1426 118.63C74.5266 119.046 75.0186 119.254 75.6186 119.254ZM82.4811 120.202C81.8091 120.202 81.2451 120.038 80.7891 119.71C80.3411 119.382 80.0931 118.926 80.0451 118.342H81.1011C81.1651 118.678 81.3251 118.926 81.5811 119.086C81.8451 119.246 82.1491 119.326 82.4931 119.326C82.8371 119.326 83.1131 119.258 83.3211 119.122C83.5371 118.986 83.6451 118.79 83.6451 118.534C83.6451 118.294 83.5651 118.098 83.4051 117.946C83.2531 117.794 83.0011 117.67 82.6491 117.574L81.7851 117.346C80.7531 117.074 80.2371 116.486 80.2371 115.582C80.2371 115.094 80.4291 114.702 80.8131 114.406C81.2051 114.11 81.7051 113.962 82.3131 113.962C82.9291 113.962 83.4331 114.126 83.8251 114.454C84.2251 114.774 84.4491 115.182 84.4971 115.678H83.4651C83.3851 115.414 83.2411 115.206 83.0331 115.054C82.8331 114.902 82.5931 114.826 82.3131 114.826C82.0171 114.826 81.7691 114.894 81.5691 115.03C81.3771 115.166 81.2811 115.346 81.2811 115.57C81.2811 115.786 81.3531 115.962 81.4971 116.098C81.6411 116.234 81.8731 116.346 82.1931 116.434L83.1531 116.686C84.1771 116.942 84.6891 117.534 84.6891 118.462C84.6891 119.038 84.4851 119.474 84.0771 119.77C83.6691 120.058 83.1371 120.202 82.4811 120.202ZM88.385 120.142C87.833 120.142 87.389 119.986 87.053 119.674C86.717 119.362 86.549 118.906 86.549 118.306V115.03H85.277V114.082H86.549V112.414H87.581V114.082H89.309V115.03H87.581V118.174C87.581 118.55 87.661 118.814 87.821 118.966C87.981 119.118 88.233 119.194 88.577 119.194C88.881 119.194 89.125 119.154 89.309 119.074V119.998C89.021 120.094 88.713 120.142 88.385 120.142ZM96.1858 120.202C95.2818 120.202 94.5298 119.902 93.9298 119.302C93.3378 118.694 93.0418 117.954 93.0418 117.082C93.0418 116.21 93.3378 115.474 93.9298 114.874C94.5298 114.266 95.2818 113.962 96.1858 113.962C97.0818 113.962 97.8258 114.266 98.4178 114.874C99.0178 115.474 99.3178 116.21 99.3178 117.082C99.3178 117.954 99.0178 118.694 98.4178 119.302C97.8258 119.902 97.0818 120.202 96.1858 120.202ZM94.6738 118.618C95.0658 119.034 95.5698 119.242 96.1858 119.242C96.8018 119.242 97.3018 119.034 97.6858 118.618C98.0698 118.202 98.2618 117.69 98.2618 117.082C98.2618 116.474 98.0698 115.962 97.6858 115.546C97.3018 115.13 96.8018 114.922 96.1858 114.922C95.5698 114.922 95.0658 115.13 94.6738 115.546C94.2898 115.962 94.0978 116.474 94.0978 117.082C94.0978 117.69 94.2898 118.202 94.6738 118.618ZM100.799 120.082V114.082H101.831V115.006C102.239 114.31 102.875 113.962 103.739 113.962C104.419 113.962 104.967 114.182 105.383 114.622C105.799 115.062 106.007 115.65 106.007 116.386V120.082H104.987V116.542C104.987 116.038 104.859 115.642 104.603 115.354C104.347 115.058 104.003 114.91 103.571 114.91C103.075 114.91 102.659 115.106 102.323 115.498C101.995 115.89 101.831 116.426 101.831 117.106V120.082H100.799ZM110.422 120.202C109.55 120.202 108.826 119.906 108.25 119.314C107.682 118.722 107.398 117.978 107.398 117.082C107.398 116.178 107.674 115.434 108.226 114.85C108.786 114.258 109.526 113.962 110.446 113.962C111.374 113.962 112.102 114.29 112.63 114.946C113.158 115.602 113.39 116.406 113.326 117.358H108.442C108.458 117.902 108.658 118.358 109.042 118.726C109.426 119.086 109.89 119.266 110.434 119.266C111.25 119.266 111.83 118.93 112.174 118.258H113.23C113.078 118.818 112.754 119.282 112.258 119.65C111.762 120.018 111.15 120.202 110.422 120.202ZM111.598 115.306C111.27 115.018 110.874 114.874 110.41 114.874C109.946 114.874 109.53 115.014 109.162 115.294C108.802 115.574 108.578 115.99 108.49 116.542H112.234C112.138 115.998 111.926 115.586 111.598 115.306ZM119.641 120.202C118.969 120.202 118.405 120.038 117.949 119.71C117.501 119.382 117.253 118.926 117.205 118.342H118.261C118.325 118.678 118.485 118.926 118.741 119.086C119.005 119.246 119.309 119.326 119.653 119.326C119.997 119.326 120.273 119.258 120.481 119.122C120.697 118.986 120.805 118.79 120.805 118.534C120.805 118.294 120.725 118.098 120.565 117.946C120.413 117.794 120.161 117.67 119.809 117.574L118.945 117.346C117.913 117.074 117.397 116.486 117.397 115.582C117.397 115.094 117.589 114.702 117.973 114.406C118.365 114.11 118.865 113.962 119.473 113.962C120.089 113.962 120.593 114.126 120.985 114.454C121.385 114.774 121.609 115.182 121.657 115.678H120.625C120.545 115.414 120.401 115.206 120.193 115.054C119.993 114.902 119.753 114.826 119.473 114.826C119.177 114.826 118.929 114.894 118.729 115.03C118.537 115.166 118.441 115.346 118.441 115.57C118.441 115.786 118.513 115.962 118.657 116.098C118.801 116.234 119.033 116.346 119.353 116.434L120.313 116.686C121.337 116.942 121.849 117.534 121.849 118.462C121.849 119.038 121.645 119.474 121.237 119.77C120.829 120.058 120.297 120.202 119.641 120.202ZM124.343 122.59H123.311V114.082H124.343V115.006C124.551 114.702 124.843 114.454 125.219 114.262C125.603 114.062 126.015 113.962 126.455 113.962C127.287 113.962 127.983 114.266 128.543 114.874C129.111 115.482 129.395 116.218 129.395 117.082C129.395 117.946 129.111 118.682 128.543 119.29C127.983 119.898 127.287 120.202 126.455 120.202C126.015 120.202 125.603 120.106 125.219 119.914C124.843 119.714 124.551 119.462 124.343 119.158V122.59ZM124.835 118.63C125.219 119.046 125.707 119.254 126.299 119.254C126.891 119.254 127.379 119.046 127.763 118.63C128.147 118.214 128.339 117.698 128.339 117.082C128.339 116.466 128.147 115.95 127.763 115.534C127.379 115.118 126.891 114.91 126.299 114.91C125.707 114.91 125.219 115.118 124.835 115.534C124.451 115.95 124.259 116.466 124.259 117.082C124.259 117.698 124.451 118.214 124.835 118.63ZM133.437 120.202C132.565 120.202 131.841 119.906 131.265 119.314C130.697 118.722 130.413 117.978 130.413 117.082C130.413 116.178 130.689 115.434 131.241 114.85C131.801 114.258 132.541 113.962 133.461 113.962C134.389 113.962 135.117 114.29 135.645 114.946C136.173 115.602 136.405 116.406 136.341 117.358H131.457C131.473 117.902 131.673 118.358 132.057 118.726C132.441 119.086 132.905 119.266 133.449 119.266C134.265 119.266 134.845 118.93 135.189 118.258H136.245C136.093 118.818 135.769 119.282 135.273 119.65C134.777 120.018 134.165 120.202 133.437 120.202ZM134.613 115.306C134.285 115.018 133.889 114.874 133.425 114.874C132.961 114.874 132.545 115.014 132.177 115.294C131.817 115.574 131.593 115.99 131.505 116.542H135.249C135.153 115.998 134.941 115.586 134.613 115.306ZM140.494 120.202C139.59 120.202 138.842 119.902 138.25 119.302C137.658 118.694 137.362 117.954 137.362 117.082C137.362 116.21 137.658 115.474 138.25 114.874C138.842 114.266 139.59 113.962 140.494 113.962C141.238 113.962 141.882 114.17 142.426 114.586C142.97 114.994 143.334 115.53 143.518 116.194H142.414C142.27 115.802 142.03 115.49 141.694 115.258C141.358 115.026 140.958 114.91 140.494 114.91C139.878 114.91 139.374 115.118 138.982 115.534C138.598 115.95 138.406 116.466 138.406 117.082C138.406 117.698 138.598 118.214 138.982 118.63C139.374 119.046 139.878 119.254 140.494 119.254C140.958 119.254 141.358 119.138 141.694 118.906C142.03 118.674 142.27 118.362 142.414 117.97H143.518C143.342 118.634 142.982 119.174 142.438 119.59C141.894 119.998 141.246 120.202 140.494 120.202ZM145.929 112.27C145.793 112.406 145.621 112.474 145.413 112.474C145.205 112.474 145.029 112.406 144.885 112.27C144.741 112.126 144.669 111.95 144.669 111.742C144.669 111.542 144.741 111.37 144.885 111.226C145.029 111.082 145.205 111.01 145.413 111.01C145.621 111.01 145.793 111.082 145.929 111.226C146.065 111.37 146.133 111.542 146.133 111.742C146.133 111.95 146.065 112.126 145.929 112.27ZM144.885 120.082V114.082H145.917V120.082H144.885ZM150.345 120.202C149.513 120.202 148.813 119.898 148.245 119.29C147.685 118.682 147.405 117.946 147.405 117.082C147.405 116.218 147.685 115.482 148.245 114.874C148.813 114.266 149.513 113.962 150.345 113.962C150.785 113.962 151.193 114.062 151.569 114.262C151.953 114.454 152.249 114.702 152.457 115.006V114.082H153.489V120.082H152.457V119.158C152.249 119.462 151.953 119.714 151.569 119.914C151.193 120.106 150.785 120.202 150.345 120.202ZM150.501 119.254C151.093 119.254 151.581 119.046 151.965 118.63C152.349 118.214 152.541 117.698 152.541 117.082C152.541 116.466 152.349 115.95 151.965 115.534C151.581 115.118 151.093 114.91 150.501 114.91C149.901 114.91 149.409 115.118 149.025 115.534C148.641 115.95 148.449 116.466 148.449 117.082C148.449 117.698 148.641 118.214 149.025 118.63C149.409 119.046 149.901 119.254 150.501 119.254ZM155.432 120.082V111.082H156.464V120.082H155.432ZM163.979 120.202C163.075 120.202 162.327 119.902 161.735 119.302C161.143 118.694 160.847 117.954 160.847 117.082C160.847 116.21 161.143 115.474 161.735 114.874C162.327 114.266 163.075 113.962 163.979 113.962C164.723 113.962 165.367 114.17 165.911 114.586C166.455 114.994 166.819 115.53 167.003 116.194H165.899C165.755 115.802 165.515 115.49 165.179 115.258C164.843 115.026 164.443 114.91 163.979 114.91C163.363 114.91 162.859 115.118 162.467 115.534C162.083 115.95 161.891 116.466 161.891 117.082C161.891 117.698 162.083 118.214 162.467 118.63C162.859 119.046 163.363 119.254 163.979 119.254C164.443 119.254 164.843 119.138 165.179 118.906C165.515 118.674 165.755 118.362 165.899 117.97H167.003C166.827 118.634 166.467 119.174 165.923 119.59C165.379 119.998 164.731 120.202 163.979 120.202ZM169.401 120.082H168.369V111.082H169.401V115.006C169.809 114.31 170.445 113.962 171.309 113.962C171.989 113.962 172.537 114.182 172.953 114.622C173.369 115.062 173.577 115.65 173.577 116.386V120.082H172.557V116.542C172.557 116.038 172.429 115.642 172.173 115.354C171.917 115.058 171.573 114.91 171.141 114.91C170.645 114.91 170.229 115.106 169.893 115.498C169.565 115.89 169.401 116.426 169.401 117.106V120.082ZM177.908 120.202C177.076 120.202 176.376 119.898 175.808 119.29C175.248 118.682 174.968 117.946 174.968 117.082C174.968 116.218 175.248 115.482 175.808 114.874C176.376 114.266 177.076 113.962 177.908 113.962C178.348 113.962 178.756 114.062 179.132 114.262C179.516 114.454 179.812 114.702 180.02 115.006V114.082H181.052V120.082H180.02V119.158C179.812 119.462 179.516 119.714 179.132 119.914C178.756 120.106 178.348 120.202 177.908 120.202ZM178.064 119.254C178.656 119.254 179.144 119.046 179.528 118.63C179.912 118.214 180.104 117.698 180.104 117.082C180.104 116.466 179.912 115.95 179.528 115.534C179.144 115.118 178.656 114.91 178.064 114.91C177.464 114.91 176.972 115.118 176.588 115.534C176.204 115.95 176.012 116.466 176.012 117.082C176.012 117.698 176.204 118.214 176.588 118.63C176.972 119.046 177.464 119.254 178.064 119.254ZM182.994 120.082V114.082H184.026V115.246C184.138 114.878 184.354 114.582 184.674 114.358C185.002 114.134 185.346 114.022 185.706 114.022C185.882 114.022 186.038 114.038 186.174 114.07V115.138C186.03 115.074 185.842 115.042 185.61 115.042C185.194 115.042 184.826 115.222 184.506 115.582C184.186 115.942 184.026 116.45 184.026 117.106V120.082H182.994ZM189.662 120.202C188.83 120.202 188.13 119.898 187.562 119.29C187.002 118.682 186.722 117.946 186.722 117.082C186.722 116.218 187.002 115.482 187.562 114.874C188.13 114.266 188.83 113.962 189.662 113.962C190.102 113.962 190.51 114.062 190.886 114.262C191.27 114.454 191.566 114.702 191.774 115.006V114.082H192.806V120.082H191.774V119.158C191.566 119.462 191.27 119.714 190.886 119.914C190.51 120.106 190.102 120.202 189.662 120.202ZM189.818 119.254C190.41 119.254 190.898 119.046 191.282 118.63C191.666 118.214 191.858 117.698 191.858 117.082C191.858 116.466 191.666 115.95 191.282 115.534C190.898 115.118 190.41 114.91 189.818 114.91C189.218 114.91 188.726 115.118 188.342 115.534C187.958 115.95 187.766 116.466 187.766 117.082C187.766 117.698 187.958 118.214 188.342 118.63C188.726 119.046 189.218 119.254 189.818 119.254ZM197.412 120.202C196.508 120.202 195.76 119.902 195.168 119.302C194.576 118.694 194.28 117.954 194.28 117.082C194.28 116.21 194.576 115.474 195.168 114.874C195.76 114.266 196.508 113.962 197.412 113.962C198.156 113.962 198.8 114.17 199.344 114.586C199.888 114.994 200.252 115.53 200.436 116.194H199.332C199.188 115.802 198.948 115.49 198.612 115.258C198.276 115.026 197.876 114.91 197.412 114.91C196.796 114.91 196.292 115.118 195.9 115.534C195.516 115.95 195.324 116.466 195.324 117.082C195.324 117.698 195.516 118.214 195.9 118.63C196.292 119.046 196.796 119.254 197.412 119.254C197.876 119.254 198.276 119.138 198.612 118.906C198.948 118.674 199.188 118.362 199.332 117.97H200.436C200.26 118.634 199.9 119.174 199.356 119.59C198.812 119.998 198.164 120.202 197.412 120.202ZM204.072 120.142C203.52 120.142 203.076 119.986 202.74 119.674C202.404 119.362 202.236 118.906 202.236 118.306V115.03H200.964V114.082H202.236V112.414H203.268V114.082H204.996V115.03H203.268V118.174C203.268 118.55 203.348 118.814 203.508 118.966C203.668 119.118 203.92 119.194 204.264 119.194C204.568 119.194 204.812 119.154 204.996 119.074V119.998C204.708 120.094 204.4 120.142 204.072 120.142ZM208.789 120.202C207.917 120.202 207.193 119.906 206.617 119.314C206.049 118.722 205.765 117.978 205.765 117.082C205.765 116.178 206.041 115.434 206.593 114.85C207.153 114.258 207.893 113.962 208.813 113.962C209.741 113.962 210.469 114.29 210.997 114.946C211.525 115.602 211.757 116.406 211.693 117.358H206.809C206.825 117.902 207.025 118.358 207.409 118.726C207.793 119.086 208.257 119.266 208.801 119.266C209.617 119.266 210.197 118.93 210.541 118.258H211.597C211.445 118.818 211.121 119.282 210.625 119.65C210.129 120.018 209.517 120.202 208.789 120.202ZM209.965 115.306C209.637 115.018 209.241 114.874 208.777 114.874C208.313 114.874 207.897 115.014 207.529 115.294C207.169 115.574 206.945 115.99 206.857 116.542H210.601C210.505 115.998 210.293 115.586 209.965 115.306ZM213.182 120.082V114.082H214.214V115.246C214.326 114.878 214.542 114.582 214.862 114.358C215.19 114.134 215.534 114.022 215.894 114.022C216.07 114.022 216.226 114.038 216.362 114.07V115.138C216.218 115.074 216.03 115.042 215.798 115.042C215.382 115.042 215.014 115.222 214.694 115.582C214.374 115.942 214.214 116.45 214.214 117.106V120.082H213.182ZM222.722 120.202C221.85 120.202 221.126 119.906 220.55 119.314C219.982 118.722 219.698 117.978 219.698 117.082C219.698 116.178 219.974 115.434 220.526 114.85C221.086 114.258 221.826 113.962 222.746 113.962C223.674 113.962 224.402 114.29 224.93 114.946C225.458 115.602 225.69 116.406 225.626 117.358H220.742C220.758 117.902 220.958 118.358 221.342 118.726C221.726 119.086 222.19 119.266 222.734 119.266C223.55 119.266 224.13 118.93 224.474 118.258H225.53C225.378 118.818 225.054 119.282 224.558 119.65C224.062 120.018 223.45 120.202 222.722 120.202ZM223.898 115.306C223.57 115.018 223.174 114.874 222.71 114.874C222.246 114.874 221.83 115.014 221.462 115.294C221.102 115.574 220.878 115.99 220.79 116.542H224.534C224.438 115.998 224.226 115.586 223.898 115.306ZM228.28 119.914C228.112 120.09 227.904 120.178 227.656 120.178C227.408 120.178 227.196 120.09 227.02 119.914C226.852 119.738 226.768 119.526 226.768 119.278C226.768 119.038 226.856 118.83 227.032 118.654C227.208 118.47 227.416 118.378 227.656 118.378C227.896 118.378 228.104 118.47 228.28 118.654C228.456 118.83 228.544 119.038 228.544 119.278C228.544 119.526 228.456 119.738 228.28 119.914ZM232.662 122.71C231.87 122.71 231.21 122.514 230.682 122.122C230.162 121.738 229.854 121.242 229.758 120.634H230.766C231.03 121.41 231.67 121.798 232.686 121.798C233.254 121.798 233.71 121.614 234.054 121.246C234.406 120.886 234.582 120.378 234.582 119.722V119.014C234.366 119.334 234.074 119.59 233.706 119.782C233.338 119.974 232.934 120.07 232.494 120.07C231.654 120.07 230.954 119.778 230.394 119.194C229.834 118.602 229.554 117.874 229.554 117.01C229.554 116.154 229.834 115.434 230.394 114.85C230.962 114.258 231.662 113.962 232.494 113.962C232.934 113.962 233.338 114.058 233.706 114.25C234.074 114.442 234.366 114.694 234.582 115.006V114.082H235.614V119.71C235.614 120.67 235.334 121.41 234.774 121.93C234.222 122.45 233.518 122.71 232.662 122.71ZM231.174 118.522C231.55 118.914 232.038 119.11 232.638 119.11C233.238 119.11 233.726 118.914 234.102 118.522C234.478 118.122 234.666 117.618 234.666 117.01C234.666 116.402 234.474 115.902 234.09 115.51C233.714 115.11 233.23 114.91 232.638 114.91C232.046 114.91 231.558 115.11 231.174 115.51C230.798 115.902 230.61 116.402 230.61 117.01C230.61 117.618 230.798 118.122 231.174 118.522ZM238.721 119.914C238.553 120.09 238.345 120.178 238.097 120.178C237.849 120.178 237.637 120.09 237.461 119.914C237.293 119.738 237.209 119.526 237.209 119.278C237.209 119.038 237.297 118.83 237.473 118.654C237.649 118.47 237.857 118.378 238.097 118.378C238.337 118.378 238.545 118.47 238.721 118.654C238.897 118.83 238.985 119.038 238.985 119.278C238.985 119.526 238.897 119.738 238.721 119.914ZM247.255 120.202C245.991 120.202 244.975 119.806 244.207 119.014C243.447 118.222 243.067 117.23 243.067 116.038C243.067 114.702 243.527 113.598 244.447 112.726C245.375 111.854 246.471 111.418 247.735 111.418C248.911 111.418 249.883 111.766 250.651 112.462C251.427 113.158 251.815 114.074 251.815 115.21C251.815 116.178 251.607 116.914 251.191 117.418C250.783 117.922 250.279 118.174 249.679 118.174C249.039 118.174 248.619 117.934 248.419 117.454C248.267 117.662 248.047 117.834 247.759 117.97C247.471 118.098 247.179 118.162 246.883 118.162C246.355 118.162 245.915 117.974 245.563 117.598C245.211 117.222 245.035 116.718 245.035 116.086C245.035 115.342 245.271 114.722 245.743 114.226C246.215 113.722 246.787 113.47 247.459 113.47C247.803 113.47 248.099 113.554 248.347 113.722C248.595 113.89 248.759 114.09 248.839 114.322L248.983 113.578H249.895L249.295 116.434C249.167 117.066 249.323 117.382 249.763 117.382C250.139 117.382 250.435 117.198 250.651 116.83C250.867 116.462 250.975 115.914 250.975 115.186C250.975 114.29 250.667 113.57 250.051 113.026C249.443 112.474 248.667 112.198 247.723 112.198C246.683 112.198 245.787 112.554 245.035 113.266C244.291 113.978 243.919 114.902 243.919 116.038C243.919 117.038 244.219 117.854 244.819 118.486C245.427 119.11 246.239 119.422 247.255 119.422C248.095 119.422 248.831 119.266 249.463 118.954V119.806C248.783 120.07 248.047 120.202 247.255 120.202ZM247.015 117.346C247.391 117.346 247.719 117.218 247.999 116.962C248.287 116.698 248.467 116.37 248.539 115.978C248.619 115.498 248.559 115.098 248.359 114.778C248.167 114.45 247.871 114.286 247.471 114.286C247.095 114.286 246.767 114.418 246.487 114.682C246.207 114.938 246.031 115.262 245.959 115.654C245.879 116.134 245.939 116.538 246.139 116.866C246.339 117.186 246.631 117.346 247.015 117.346ZM256.405 120.082L257.149 117.682H254.977L254.245 120.082H253.285L254.029 117.682H252.637V116.806H254.305L254.953 114.754H253.513V113.878H255.229L255.949 111.562H256.897L256.177 113.878H258.337L259.069 111.562H260.005L259.285 113.878H260.677V114.754H259.009L258.373 116.806H259.813V117.682H258.085L257.353 120.082H256.405ZM255.901 114.754L255.265 116.806H257.425L258.061 114.754H255.901ZM263.933 121.138V120.178C263.277 120.106 262.733 119.858 262.301 119.434C261.869 119.002 261.645 118.418 261.629 117.682H262.661C262.765 118.53 263.189 119.026 263.933 119.17V116.182L263.525 116.026C262.293 115.53 261.677 114.722 261.677 113.602C261.677 112.962 261.889 112.454 262.313 112.078C262.737 111.694 263.277 111.478 263.933 111.43V110.506H264.581V111.454C265.157 111.542 265.641 111.774 266.033 112.15C266.433 112.518 266.633 112.998 266.633 113.59H265.601C265.497 112.974 265.157 112.598 264.581 112.462V115.27L264.881 115.39C265.529 115.654 266.013 115.986 266.333 116.386C266.661 116.786 266.825 117.286 266.825 117.886C266.825 118.59 266.617 119.138 266.201 119.53C265.793 119.922 265.253 120.142 264.581 120.19V121.138H263.933ZM265.793 117.958C265.793 117.59 265.693 117.29 265.493 117.058C265.293 116.826 264.989 116.622 264.581 116.446V119.194C264.925 119.154 265.213 119.022 265.445 118.798C265.677 118.566 265.793 118.286 265.793 117.958ZM262.709 113.602C262.709 113.93 262.801 114.202 262.985 114.418C263.177 114.626 263.493 114.826 263.933 115.018V112.426C263.557 112.466 263.257 112.594 263.033 112.81C262.817 113.026 262.709 113.29 262.709 113.602ZM271.162 120.082H270.046L275.446 111.562H276.562L271.162 120.082ZM276.502 120.178C275.846 120.178 275.286 119.946 274.822 119.482C274.366 119.018 274.138 118.462 274.138 117.814C274.138 117.158 274.366 116.602 274.822 116.146C275.286 115.682 275.846 115.45 276.502 115.45C277.15 115.45 277.706 115.682 278.17 116.146C278.634 116.602 278.866 117.158 278.866 117.814C278.866 118.462 278.634 119.018 278.17 119.482C277.706 119.946 277.15 120.178 276.502 120.178ZM276.502 119.242C276.886 119.242 277.218 119.102 277.498 118.822C277.778 118.534 277.918 118.198 277.918 117.814C277.918 117.43 277.778 117.098 277.498 116.818C277.218 116.53 276.886 116.386 276.502 116.386C276.102 116.386 275.766 116.526 275.494 116.806C275.222 117.086 275.086 117.422 275.086 117.814C275.086 118.206 275.222 118.542 275.494 118.822C275.766 119.102 276.102 119.242 276.502 119.242ZM270.106 116.194C269.45 116.194 268.89 115.962 268.426 115.498C267.97 115.034 267.742 114.478 267.742 113.83C267.742 113.174 267.97 112.618 268.426 112.162C268.89 111.698 269.45 111.466 270.106 111.466C270.754 111.466 271.31 111.698 271.774 112.162C272.238 112.618 272.47 113.174 272.47 113.83C272.47 114.478 272.238 115.034 271.774 115.498C271.31 115.962 270.754 116.194 270.106 116.194ZM270.106 115.258C270.49 115.258 270.822 115.118 271.102 114.838C271.382 114.55 271.522 114.214 271.522 113.83C271.522 113.446 271.382 113.114 271.102 112.834C270.822 112.546 270.49 112.402 270.106 112.402C269.706 112.402 269.37 112.542 269.098 112.822C268.826 113.102 268.69 113.438 268.69 113.83C268.69 114.222 268.826 114.558 269.098 114.838C269.37 115.118 269.706 115.258 270.106 115.258ZM280.741 114.082H279.877L281.389 111.562H282.013L283.525 114.082H282.649L281.689 112.498L280.741 114.082ZM287.548 120.202C286.772 120.202 286.14 119.974 285.652 119.518C285.172 119.054 284.932 118.466 284.932 117.754C284.932 117.194 285.096 116.73 285.424 116.362C285.752 115.986 286.192 115.638 286.744 115.318L286.804 115.282C286.116 114.642 285.772 113.998 285.772 113.35C285.772 112.79 285.98 112.33 286.396 111.97C286.812 111.602 287.328 111.418 287.944 111.418C288.56 111.418 289.064 111.61 289.456 111.994C289.848 112.37 290.044 112.838 290.044 113.398C290.044 114.238 289.496 114.934 288.4 115.486L290.212 117.262L291.22 115.978H292.42L290.884 117.922L293.104 120.082H291.748L290.284 118.666C289.828 119.202 289.388 119.594 288.964 119.842C288.548 120.082 288.076 120.202 287.548 120.202ZM287.584 119.266C287.96 119.266 288.3 119.17 288.604 118.978C288.908 118.778 289.244 118.458 289.612 118.018L287.488 115.954L287.332 116.038C286.876 116.278 286.536 116.53 286.312 116.794C286.088 117.058 285.976 117.382 285.976 117.766C285.976 118.222 286.132 118.586 286.444 118.858C286.764 119.13 287.144 119.266 287.584 119.266ZM286.768 113.374C286.768 113.558 286.816 113.738 286.912 113.914C287.008 114.09 287.108 114.234 287.212 114.346C287.316 114.458 287.488 114.626 287.728 114.85L287.788 114.814C288.204 114.598 288.512 114.394 288.712 114.202C288.92 114.01 289.024 113.766 289.024 113.47C289.024 113.134 288.924 112.858 288.724 112.642C288.524 112.426 288.256 112.318 287.92 112.318C287.6 112.318 287.328 112.414 287.104 112.606C286.88 112.798 286.768 113.054 286.768 113.374ZM294.258 115.618L293.61 115.15L294.534 113.866L293.022 113.362L293.25 112.594L294.786 113.098V111.562H295.59V113.098L297.114 112.606L297.366 113.362L295.842 113.866L296.79 115.15L296.142 115.618L295.194 114.334L294.258 115.618ZM300.779 122.002H299.939C298.915 120.138 298.403 118.218 298.403 116.242C298.403 114.266 298.915 112.346 299.939 110.482H300.779C299.811 112.362 299.327 114.282 299.327 116.242C299.327 118.202 299.811 120.122 300.779 122.002ZM302.332 122.002H301.492C302.46 120.122 302.944 118.202 302.944 116.242C302.944 114.282 302.46 112.362 301.492 110.482H302.332C303.356 112.346 303.868 114.266 303.868 116.242C303.868 118.218 303.356 120.138 302.332 122.002Z" fill="#32325D" fill-opacity="0.8"/>
<path fill-rule="evenodd" clip-rule="evenodd" d="M28.8831 110.558C29.0211 110.419 29.1869 110.307 29.3707 110.23C29.5545 110.153 29.7526 110.111 29.9535 110.107C30.1544 110.104 30.354 110.138 30.5408 110.209C30.7275 110.28 30.8975 110.385 31.041 110.519C31.1845 110.654 31.2985 110.814 31.3764 110.99C31.4542 111.167 31.4944 111.357 31.4946 111.548C31.4948 111.74 31.455 111.93 31.3774 112.106C31.2998 112.283 31.1861 112.443 31.0429 112.578L22.9936 122.174C22.8553 122.316 22.6883 122.429 22.5027 122.509C22.3171 122.588 22.1167 122.63 21.9135 122.634C21.7103 122.637 21.5084 122.602 21.3198 122.529C21.1313 122.457 20.9601 122.349 20.8163 122.212L15.4827 117.122C15.3338 116.99 15.2144 116.831 15.1315 116.654C15.0486 116.477 15.004 116.286 15.0003 116.092C14.9966 115.898 15.0339 115.705 15.1099 115.526C15.186 115.346 15.2993 115.182 15.4431 115.045C15.5868 114.908 15.758 114.8 15.9465 114.728C16.1351 114.655 16.337 114.62 16.5402 114.623C16.7435 114.627 16.9439 114.669 17.1295 114.748C17.3151 114.827 17.4821 114.941 17.6205 115.083L21.8431 119.108L28.8448 110.601C28.8573 110.586 28.8707 110.572 28.885 110.559L28.8831 110.558Z" fill="#11D686"/>
</svg>
