<svg width="69" height="69" viewBox="0 0 69 69" fill="none" xmlns="http://www.w3.org/2000/svg">
<g filter="url(#filter0_d_313_1551)">
<circle cx="34.5" cy="30.5" r="26.5" fill="url(#paint0_linear_313_1551)"/>
<circle cx="34.5" cy="30.5" r="25.6311" stroke="white" stroke-width="1.7377"/>
</g>
<path d="M36.8894 28.1832L35.6725 29.4001C35.3049 29.7677 35.3049 30.3637 35.6725 30.7313L36.8894 31.9482M35.9482 30.0657L43.4782 30.0657M28.4181 37.5958C26.3387 37.5958 24.6531 35.9101 24.6531 33.8307V26.3007C24.6531 24.2213 26.3387 22.5356 28.4181 22.5356M28.4181 37.5958C30.4975 37.5958 32.1831 35.9101 32.1831 33.8307V26.3007C32.1831 24.2213 30.4975 22.5356 28.4181 22.5356M28.4181 37.5958H35.9482C38.0275 37.5958 39.7132 35.9101 39.7132 33.8307M28.4181 22.5356H35.9482C38.0275 22.5356 39.7132 24.2213 39.7132 26.3007" stroke="white" stroke-width="1.41189" stroke-linecap="round"/>
<defs>
<filter id="filter0_d_313_1551" x="0" y="0" width="69" height="69" filterUnits="userSpaceOnUse" color-interpolation-filters="sRGB">
<feFlood flood-opacity="0" result="BackgroundImageFix"/>
<feColorMatrix in="SourceAlpha" type="matrix" values="0 0 0 0 0 0 0 0 0 0 0 0 0 0 0 0 0 0 127 0" result="hardAlpha"/>
<feOffset dy="4"/>
<feGaussianBlur stdDeviation="4"/>
<feComposite in2="hardAlpha" operator="out"/>
<feColorMatrix type="matrix" values="0 0 0 0 0.658333 0 0 0 0 0.658333 0 0 0 0 0.658333 0 0 0 0.25 0"/>
<feBlend mode="normal" in2="BackgroundImageFix" result="effect1_dropShadow_313_1551"/>
<feBlend mode="normal" in="SourceGraphic" in2="effect1_dropShadow_313_1551" result="shape"/>
</filter>
<linearGradient id="paint0_linear_313_1551" x1="34.5" y1="4" x2="34.5" y2="57" gradientUnits="userSpaceOnUse">
<stop stop-color="#6768FB"/>
<stop offset="1" stop-color="#E7E7F8"/>
</linearGradient>
</defs>
</svg>
